<svg xmlns="http://www.w3.org/2000/svg" width="25.671mm" height="24.433mm" viewBox="0 0 90.95852 86.5722"><path fill="none" stroke="#908f8f" stroke-width="1.111" d="M21.19 76.86s15.632-17.2 23.36-25.883c6.276-7.057 18.25-20.44 18.683-21.298-3.078-2.293-3.406-17.705 2.408-21.432 14.42-9.137 21.74 1.73 21.74 1.73L74.475 16.22l7.354 16.65s-4.7 2.578-7.216 3.47c-1.882.668-3.673 1.42-5.828 1.388l-35.384 48.29c-5.028-.025-9.382-1.44-12.21-9.158zm30.573-15.77l16.605 23.403c4.774-1.36 9.723-2.287 12.35-9.02L58.476 51.696m-7.35-7.858L38.534 30.375c-.744-.618-.964-2.023-.97-3.747l-6.8-7.77c2.455-12.252 9.842-14.966 17.76-16.652-7.604-4.2-17.927-.425-31.082 11.656-1.29 5.998-4.78 9.668-12.35 9.02l-4.44 3.884c1.376 3.672 2.096 7.522 7.91 9.99l5.688-4.162c.384-5.297 3.754-6.794 8.187-6.938l6.52 7.91c1.39.092 2.776-.238 4.164 1.248l11.42 16.096m26.74-19.217l4.3-2.012-4.092-9.575-4.44 2.22zm6.035-9.158l12.905-5.76s.633 4.952-.486 7.008c-1.768 3.25-8.88 6.66-8.88 6.66"/></svg>
