<svg xmlns="http://www.w3.org/2000/svg" width="25.967mm" height="23.551mm" viewBox="0 0 92.00989 83.4495"><path fill="none" stroke="#908f8f" stroke-width="1.111" d="M.79 82.32s2.774-5.473 4.362-8.095c2.632-4.346 5.497-8.585 8.54-12.626 7.2-9.56 15.882-18.06 25.18-25.6 4.34-3.52 10.794-8.29 16.473-12.03C65.43 17.323 86.53 5.519 86.53 5.519S65.71 18.264 55.77 25.121c-5.606 3.87-11.915 9.004-16.16 12.508-9.288 7.667-18.092 16.125-25.392 25.704-2.925 3.837-5.548 7.77-8.017 11.85-1.487 2.46-4.08 7.592-4.08 7.592zm9.508-15.37c-2.436-2.82-4.572-4.206-4.572-4.206s1.902-.14 3.6 1.48c0 0-1.357-3.5-1.972-6.353-.607-2.817-.238-5.782-.07-6.563.55 1.595 2.676 5.39 2.676 5.39s-.577-5.447-.156-8.06c.42-2.613 1.243-7.247 1.654-7.755-.116 1.158 2.342 7.4 2.342 7.4s-.243-5.45.793-7.878C17.009 34.747 26.58 26.37 26.58 26.37s-.52 2.672-.614 4.026c-.196 2.834.39 6.023.39 6.023s.425-4.8 1.216-8.372c.29-1.313 1.188-3.854 1.188-3.854l.513 2.372s.92-2.198 1.678-3.09c3.893-4.577 14.256-11.03 14.256-11.03s-.61 3.033-.214 5.735c.39 2.683.79 5.307.82 5.116.03-.17.114-4.282.57-6.362.576-2.64 2.713-7.64 2.713-7.64l.174 1.628s.553-.83.93-1.146c2.09-1.77 7.153-4.043 7.153-4.043s.138 3.94.566 5.853c.215.96.995 2.774.995 2.774s-.115-1.938-.115-2.908c0-2.443.286-7.32.286-7.32s4.716-1.57 7.165-1.895c2.208-.292 6.68-.03 6.68-.03s.515 1.924.91 2.834c.242.557.886 1.59.886 1.59s.127-1.277.12-1.957c-.016-1.338.08-2.126.08-2.126S78.516.86 80.456.615c1.95-.246 5.875.503 5.875.503s-.334.895-.368 1.365c-.023.316-.304 1.22-.304 1.22s.82-.62 1.06-.72c.682-.28 2.177-.39 2.177-.39s2.067 2.374 2.435 3.846c.422 1.684-.385 5.193-.385 5.193s-1.55-.68-2.348-.957c-.576-.202-1.755-.517-1.755-.517s1.138.774 1.603 1.273c.567.61 1.41 2.06 1.41 2.06s-.725.963-1.124 1.416c-.353.4-1.12 1.147-1.12 1.147s-.982-.135-1.47-.088c-.287.028-.838.216-.838.216s.467.236.647.418c.223.224.507.8.507.8s-1.834 2.023-2.788 3c-3.283 3.357-10.098 9.822-10.098 9.822s-2.088-1.47-3.203-2.09c-.95-.526-2.952-1.373-2.952-1.373s1.76 1.24 2.563 1.953c1.057.94 2.952 3.047 2.952 3.047s-3.045 2.194-4.518 3.354c-.646.51-1.893 1.584-1.893 1.584s-.948-.01-1.41.083c-.42.085-1.218.43-1.218.43s1.056.236 1.553.442c.49.203 1.395.775 1.395.775s-8.14-.255-12.202-.022c-1.346.077-4.017.47-4.017.47s2.594.22 3.874.442c2.477.433 7.343 1.74 7.343 1.74s-4.456 3.835-6.91 5.438c-.762.497-2.406 1.282-2.406 1.282s-3.883-.81-5.995-1.09c-1.47-.194-4.433-.31-4.433-.31s2.982.582 4.403 1.104c1.304.48 3.737 2.33 3.737 2.33s-7.815.883-11.74.377c-1.81-.23-3.08-.33-3.08-.33s1.2.598 2.97 1.076c3.367.91 8.39 1.49 8.39 1.49s-7.243 3.445-12.492 3.912c-1.74.098-5.203.49-5.203.49s3.688.816 5.565.9c1.755.078 5.258-.375 5.258-.375s-3.09 2.695-6.054 3.227c-1.05.196-3.483-.034-3.483-.034s2.045 1.18 2.823 1.506c.568.237 1.6.927 1.6.927l.044.28c.002.12-.045.36-.045.36s-4.604-.385-7.68-.844c-1.143-.17-3.447-.343-3.447-.343s2.23.803 3.31 1.293c2.392 1.09 5.518 2.673 5.518 2.673s-2.163.584-3.274.66c-.88.062-2.647-.16-2.647-.16s1.4.75 1.67.96c.51.404 1.36 1.404 1.36 1.404s-3.785.796-5.692.677c-1.465-.092-3.85-.815-4.277-1.062 1.24.716 2.083 3.814 2.083 3.814s-4.133-2.874-6.392-3.958c-1.6-.768-3.17-.963-5.018-1.78z"/></svg>
