<svg xmlns="http://www.w3.org/2000/svg" width="18.424mm" height="20.54mm" viewBox="0 0 65.281 72.78109"><path fill="none" stroke="#908f8f" stroke-width="1.111" d="M30.675 1.04c1.113-.643 2.485-.643 3.598 0l28.65 16.75c1.116.642 1.802 1.83 1.802 3.117v31.037c0 1.286-.686 2.474-1.8 3.118L34.278 71.747c-1.115.642-2.487.642-3.602 0l-6.98-4.28m-2.69-43.26v33.977c0 1.503-4.208 3.18-6.175 2.886-4.12-.83-8.312-3.46-12.476-5.91-1.115-.642-1.8-1.832-1.8-3.117v-31.14c0-1.286.685-2.473 1.8-3.116l28.32-16.75m20.66 29.37c-.706-7.354-7.873-6.97-11.987-6.95-3.794.018-9.143.82-9.22 6.676-.063 4.915 6.458 5.486 10.3 6 4.957.666 11.893 1.26 12.085 6.548.136 3.724-3.505 7.568-10.647 7.568-12.23 0-12.89-7.353-12.89-7.353"/></svg>
