<svg xmlns="http://www.w3.org/2000/svg" width="110.19" height="76.18858" version="1.2"><path fill="none" stroke="#908f8f" stroke-width="1.111" d="M16.1045 18.6955h40.914m-40.916 9.224h40.916m-40.916 9.42h40.916m9.368-25.274c-6.568-6.964-17.36-11.51-29.576-11.51-20.023 0-36.255 12.205-36.255 27.27 0 10.15 7.375 19.003 18.31 23.7.487 1.592 1.696 4.727 3.133 6.75 1.593 2.245 5.925 5.756 5.925 5.756s.05-5.63.05-8.183c.326-.57.52-.797 1.165-.923 1.483 0 3.49.04 4.225.05 1.133.08 2.287.12 3.448.12 2.4 0 4.724-.175 6.994-.51m22.582-42.52c4.198 4.45 6.678 9.886 6.678 15.76 0 13.26-12.595 24.303-29.26 26.76 6.568 6.964 17.36 11.51 29.576 11.51 1.16 0 2.315-.04 3.448-.12.736-.01 2.743-.05 4.225-.05.644.126.837.35 1.164.923 0 2.555.05 8.183.05 8.183s4.33-3.51 5.924-5.755c1.436-2.023 2.645-5.157 3.132-6.75 10.934-4.697 18.31-13.55 18.31-23.7 0-15.065-16.232-27.27-36.255-27.27-2.4 0-4.724.175-6.994.51z"/></svg>
