<svg xmlns="http://www.w3.org/2000/svg" version="1.2" width="729.162" height="86.576"><path d="M30.99 7.92c1.113-.643 2.485-.643 3.598 0l28.651 16.749c1.115.643 1.801 1.831 1.801 3.118v31.037c0 1.286-.686 2.474-1.799 3.118l-28.649 16.685c-1.115.642-2.487.642-3.602 0l-6.981-4.281m-2.691-43.258v33.976c0 1.503-4.207 3.181-6.174 2.886-4.121-.829-8.312-3.459-12.476-5.909-1.114-.643-1.8-1.833-1.8-3.118v-31.139c0-1.287.686-2.474 1.801-3.117l28.32-16.749m20.659 29.368c-.705-7.353-7.872-6.97-11.986-6.95-3.794.019-9.143.821-9.219 6.677-.064 4.915 6.457 5.486 10.298 6.001 4.958.665 11.894 1.26 12.086 6.547.136 3.722-3.505 7.566-10.647 7.566-12.231 0-12.892-7.353-12.892-7.353M283.627 24.191h40.916m-40.916 9.223h40.916m-40.916 9.419h40.916M333.911 17.56c-6.569-6.964-17.361-11.51-29.577-11.51-20.023 0-36.255 12.205-36.255 27.27 0 10.151 7.375 19.003 18.31 23.7.487 1.592 1.696 4.727 3.133 6.751 1.593 2.244 5.925 5.755 5.925 5.755s.049-5.629.049-8.183c.327-.571.52-.797 1.166-.923 1.483 0 3.489.039 4.225.049 1.133.08 2.287.121 3.448.121 2.4 0 4.724-.175 6.994-.51m22.583-42.52c4.198 4.45 6.678 9.886 6.678 15.76 0 13.259-12.595 24.303-29.261 26.76 6.569 6.964 17.361 11.51 29.577 11.51 1.161 0 2.315-.041 3.448-.121.736-.01 2.743-.049 4.225-.049.646.126.839.351 1.166.923 0 2.555.049 8.183.049 8.183s4.332-3.511 5.925-5.755c1.437-2.024 2.646-5.158 3.133-6.751 10.934-4.697 18.31-13.549 18.31-23.7 0-15.065-16.232-27.27-36.255-27.27-2.4 0-4.724.175-6.994.51zm-260.318 66.383s2.774-5.474 4.362-8.096c2.632-4.346 5.497-8.585 8.54-12.626 7.201-9.561 15.882-18.062 25.179-25.601 4.34-3.519 10.795-8.292 16.474-12.032 10.087-6.645 31.187-18.45 31.187-18.45s-20.82 12.746-30.759 19.603c-5.607 3.868-11.916 9.003-16.161 12.507-9.288 7.667-18.092 16.125-25.392 25.704-2.925 3.837-5.548 7.77-8.017 11.851-1.487 2.458-4.081 7.591-4.081 7.591zm9.508-15.37c-2.436-2.821-4.572-4.207-4.572-4.207s1.902-.14 3.599 1.481c0 0-1.356-3.501-1.971-6.354-.607-2.817-.238-5.782-.07-6.563.55 1.595 2.676 5.39 2.676 5.39s-.577-5.447-.156-8.061c.421-2.612 1.243-7.246 1.654-7.754-.116 1.158 2.342 7.401 2.342 7.401s-.243-5.451.793-7.879c2.416-5.658 11.987-14.035 11.987-14.035s-.521 2.672-.614 4.026c-.196 2.834.39 6.023.39 6.023s.425-4.803 1.216-8.374c.29-1.313 1.188-3.854 1.188-3.854l.513 2.372s.919-2.198 1.678-3.091c3.893-4.576 14.256-11.029 14.256-11.029s-.61 3.033-.216 5.735c.391 2.682.789 5.306.821 5.115.028-.169.113-4.282.568-6.362.577-2.641 2.714-7.641 2.714-7.641l.175 1.629s.553-.83.929-1.147c2.091-1.769 7.154-4.043 7.154-4.043s.138 3.939.566 5.852c.215.959.995 2.774.995 2.774s-.115-1.938-.115-2.908c-.001-2.442.286-7.32.286-7.32s4.717-1.57 7.166-1.894c2.208-.292 6.681-.029 6.681-.029s.514 1.923.909 2.833c.242.557.886 1.59.886 1.59s.126-1.277.119-1.957c-.016-1.338.079-2.126.079-2.126s3.592-1.688 5.529-1.933c1.951-.246 5.877.503 5.877.503s-.334.895-.368 1.365c-.023.315-.304 1.22-.304 1.22s.819-.621 1.06-.72c.682-.28 2.177-.391 2.177-.391s2.068 2.374 2.436 3.846c.422 1.684-.385 5.193-.385 5.193s-1.55-.678-2.348-.957c-.576-.202-1.755-.517-1.755-.517s1.138.774 1.603 1.273c.567.609 1.41 2.06 1.41 2.06s-.725.964-1.124 1.417c-.353.401-1.12 1.147-1.12 1.147s-.982-.135-1.47-.088c-.287.028-.838.216-.838.216s.467.235.647.417c.223.224.507.801.507.801s-1.834 2.022-2.788 2.998c-3.283 3.358-10.098 9.823-10.098 9.823s-2.088-1.47-3.203-2.088c-.949-.527-2.952-1.374-2.952-1.374s1.759 1.24 2.561 1.953c1.057.939 2.952 3.047 2.952 3.047s-3.045 2.194-4.518 3.354c-.646.509-1.893 1.582-1.893 1.582s-.948-.01-1.409.083c-.422.085-1.219.43-1.219.43s1.056.236 1.553.442c.492.204 1.396.776 1.396.776s-8.141-.255-12.202-.022c-1.346.077-4.017.471-4.017.471s2.594.218 3.874.441c2.478.433 7.344 1.739 7.344 1.739s-4.456 3.836-6.911 5.439c-.761.497-2.405 1.282-2.405 1.282s-3.883-.81-5.995-1.09c-1.469-.194-4.433-.31-4.433-.31s2.984.582 4.405 1.104c1.304.479 3.737 2.331 3.737 2.331s-7.816.883-11.74.377c-1.81-.231-3.082-.329-3.082-.329s1.202.597 2.972 1.075c3.366.909 8.39 1.491 8.39 1.491s-7.244 3.444-12.493 3.911c-1.739.098-5.203.49-5.203.49s3.688.816 5.565.9c1.755.078 5.258-.375 5.258-.375s-3.091 2.696-6.054 3.228c-1.05.196-3.483-.034-3.483-.034s2.043 1.18 2.821 1.506c.568.239 1.599.929 1.599.929l.045.28c.002.121-.045.361-.045.361s-4.605-.386-7.682-.845c-1.142-.17-3.446-.343-3.446-.343s2.231.802 3.309 1.292c2.393 1.089 5.519 2.673 5.519 2.673s-2.164.584-3.275.661c-.881.061-2.646-.161-2.646-.161s1.4.75 1.669.961c.512.403 1.36 1.403 1.36 1.403s-3.784.796-5.691.677c-1.466-.092-3.851-.815-4.278-1.062 1.24.716 2.083 3.814 2.083 3.814s-4.133-2.872-6.392-3.956c-1.6-.768-3.17-.963-5.019-1.781zm108.727 8.289s15.634-17.201 23.36-25.883c6.278-7.055 18.253-20.439 18.685-21.296-3.078-2.293-3.406-17.705 2.408-21.432 14.417-9.139 21.737 1.728 21.737 1.728l-12.905 6.244 7.354 16.651s-4.7 2.577-7.216 3.469c-1.882.668-3.673 1.42-5.828 1.388l-35.384 48.289c-5.028-.025-9.382-1.439-12.211-9.158zm30.575-15.771l16.605 23.403c4.775-1.361 9.724-2.287 12.35-9.019l-22.241-23.778m-7.35-7.858l-12.592-13.462c-.744-.618-.964-2.023-.971-3.747l-6.799-7.771c2.455-12.251 9.842-14.965 17.761-16.651-7.605-4.2-17.928-.425-31.083 11.656-1.291 5.998-4.781 9.668-12.35 9.019l-4.44 3.885c1.376 3.672 2.096 7.522 7.909 9.991l5.689-4.163c.384-5.297 3.754-6.794 8.187-6.938l6.522 7.909c1.388.093 2.775-.237 4.163 1.249l11.42 16.096M241.922 31.695l4.302-2.012-4.093-9.575-4.44 2.22zm6.036-9.158l12.905-5.759s.633 4.951-.486 7.007c-1.768 3.25-8.881 6.661-8.881 6.661" stroke="#908f8f" stroke-width="1.111" fill="none"/><path d="M560.346 22.489c-11.776 0-21.326 9.548-21.326 21.326 0 9.422 6.11 17.416 14.584 20.236 1.066.197 1.457-.463 1.457-1.026 0-.509-.02-2.188-.029-3.97-5.933 1.29-7.185-2.516-7.185-2.516-.97-2.465-2.368-3.12-2.368-3.12-1.935-1.324.146-1.296.146-1.296 2.141.15 3.269 2.198 3.269 2.198 1.902 3.26 4.989 2.317 6.206 1.772.191-1.378.744-2.319 1.354-2.852-4.737-.539-9.716-2.368-9.716-10.539 0-2.328.833-4.231 2.197-5.724-.221-.537-.951-2.706.207-5.644 0 0 1.791-.573 5.866 2.186 1.701-.473 3.525-.709 5.338-.718 1.812.008 3.638.245 5.342.718 4.07-2.759 5.859-2.186 5.859-2.186 1.161 2.937.43 5.106.209 5.644 1.367 1.493 2.195 3.396 2.195 5.724 0 8.191-4.989 9.994-9.738 10.522.765.662 1.446 1.96 1.446 3.949 0 2.853-.025 5.15-.025 5.852 0 .568.384 1.232 1.465 1.023 8.469-2.823 14.572-10.814 14.572-20.233 0-11.778-9.548-21.326-21.325-21.326" fill="#1b1817" fill-rule="evenodd"/><path fill="#f00" d="M523.655 35.099v-15.559h-74.559v15.559h-5.834v31.881h86.113v-31.881z"/><path d="M441.707 67.709v-34.148h5.84v-15.574h77.747v15.574h5.726v34.148h-89.313zm2.435-1.226l84.128.074-.365-29.88h-5.728v-15.575h-71.516v15.575h-5.84l-.57 28.818-.11.989z" fill="#eb1019"/><path fill="#fff" d="M455.639 28.461l7.812-2.652-.032-10.588-10.437 2.633v7.012z"/><path fill="#bd101d" stroke="#bd101d" d="M518.08 53.332l.011 13.905h-63.526l.035-13.616 17.628 3.983zm-11.017-9.58l-4.792-1.988-9.964-6.803-11.905 3.623-25.815-1.955v9.158l16.369 4.696 46.774-4.155v-9.553z" stroke-width=".412"/><path fill="#fff" d="M450.522 37.07l4.066-.001 7.526 11.332 2.775.757 3.769 15.617 1.955.811 1.383 5.714h10.905l-5.244-21.674 14.815-9.619 8.057 6.808 1.957-.767.743 2.024 14.502-1.302-1.259-3.213-8.159-1.995-14.774-12.037-16.098 6.106-4.946-6.51 7.452-7.576h7.102l2.802 2.361v-2.361h5.582l-1.348-3.133-16.351-2.589-15.094 9.667-15.106 5.064-2.951 3.121v8.369l4.166 1.773v-4.834l1.773 1.389z"/><path d="M402.179 61.976c-5.329 0-10.289-1.562-14.464-4.239.738.087 1.489.132 2.251.132 4.421 0 8.489-1.509 11.719-4.039-4.129-.076-7.614-2.804-8.814-6.553.576.11 1.167.169 1.775.169.86 0 1.694-.115 2.486-.331-4.317-.867-7.569-4.681-7.569-9.252l.001-.119c1.272.707 2.727 1.131 4.274 1.18-2.532-1.692-4.198-4.58-4.198-7.854 0-1.729.465-3.35 1.277-4.744 4.654 5.709 11.607 9.465 19.449 9.859-.161-.691-.244-1.411-.244-2.15 0-5.211 4.225-9.436 9.436-9.436 2.714 0 5.166 1.146 6.888 2.98 2.149-.423 4.169-1.209 5.992-2.29-.705 2.203-2.201 4.053-4.149 5.221 1.909-.228 3.727-.735 5.42-1.486-1.265 1.892-2.865 3.554-4.708 4.885.018.405.027.812.027 1.221 0 12.469-9.491 26.847-26.847 26.847" fill="#6babe1"/><path d="M594.842 21.81h35.407c1.757 0 3.171 1.304 3.171 2.923v35.752c0 1.619-1.414 2.923-3.171 2.923h-35.407c-1.757 0-3.171-1.304-3.171-2.923v-35.752c0-1.619 1.414-2.923 3.171-2.923z" fill="#cc2b29"/><path d="M597.945 26.3v11.449h8.245v-3.365h1.899v15.771h-2.779v8.761h14.409v-8.761h-2.765v-15.771h1.913v3.365h8.28v-11.449h-29.203zm2.52 2.374h24.162v6.723h-3.4v-3.33h-6.793v20.678h2.981v3.798h-9.739v-3.798h2.904v-20.678h-6.716v3.33h-3.4v-6.723z" fill="#fff"/><path d="M729.162 63.407v-41.598h-38.34v41.598z"/><path d="M725.63 39.839v20.2h-31.277v-11.729h6.108c.046.002.084.02.092.074.189 6.409 4.095 9.791 8.462 10.026 6.323.341 8.925-4.334 9.123-8.709 0-4.381-3.407-6.687-7.494-8.579-2.451-1.299-4.91-3.152-4.848-5.627.063-2.499 1.89-5.43 5.174-5.43 3.284 0 5.097 2.999 5.151 7.101-.019 1.551 1.138 2.639 3.234 2.645 2.103 0 4.556.029 6.276.029z" fill="#f00"/><path d="M694.353 44.726v-19.548h31.277v11.077h-5.998c-.175-.036-.175-.086-.206-.222-.232-6.3-4.285-9.227-8.457-9.227-4.65 0-8.365 2.648-8.773 8.269-.278 3.825 3.057 7.127 7.144 9.019 2.451 1.299 5.274 3.11 5.218 5.606-.062 2.784-1.396 5.125-5.218 5.125-2.798 0-5.293-2.184-5.293-6.516 0-1.518-.958-3.584-3.209-3.584z" fill="#ff0"/><path d="M641.42 40.482c0-10.234 8.297-18.531 18.532-18.531 17.463 0 22.582 11.585 22.869 20.733 0 11.445-9.279 20.723-20.725 20.723-11.311 0-20.677-9.243-20.677-22.926z" fill="#f7bc60"/><path d="M660.478 58.871c-10.235 0-18.532-8.297-18.532-18.531 0-10.234 8.297-18.531 18.532-18.531 11.478 0 18.556 9.29 18.556 17.71 0 13.867-10.205 19.09-18.556 19.352z" fill="#e76f34"/><path d="M678.968 38.512c0 8.807-7.14 15.947-15.948 15.947s-15.948-7.14-15.948-15.947c0-8.807 7.14-15.947 15.948-15.947s15.948 7.14 15.948 15.947z" fill="#e63b42"/><path d="M678.93 39.577c0 7.951-6.446 14.396-14.397 14.396-7.951 0-14.397-6.445-14.397-14.396 0-7.951 6.446-14.396 14.397-14.396 7.951 0 14.397 6.445 14.397 14.396z" fill="#c0d341"/><path d="M676.396 40.73c0 7.441-6.033 13.473-13.474 13.473-7.442 0-13.474-6.032-13.474-13.473 0-7.441 6.033-13.473 13.474-13.473 7.442 0 13.474 6.032 13.474 13.473z" fill="#6db74f"/><path d="M671.747 38.314c0 6.14-4.978 11.118-11.119 11.118s-11.119-4.978-11.119-11.118c0-6.14 4.978-11.118 11.119-11.118s11.119 4.978 11.119 11.118z" fill="#aedae7"/><path d="M671.776 36.82c0 5.157-4.072 9.338-9.095 9.338-5.023 0-9.095-4.181-9.095-9.338 0-5.157 4.072-9.338 9.095-9.338 5.023 0 9.095 4.181 9.095 9.338z" fill="#56bae0"/><path d="M671.804 38.084c0 4.586-3.718 8.304-8.304 8.304s-8.304-3.718-8.304-8.304 3.718-8.304 8.304-8.304 8.304 3.718 8.304 8.304z" fill="#00b3d8"/><path d="M669.701 38.913c0 3.977-3.224 7.201-7.201 7.201-3.977 0-7.201-3.224-7.201-7.201 0-3.977 3.224-7.201 7.201-7.201 3.977 0 7.201 3.224 7.201 7.201z" fill="#231f20"/><path d="M666.787 36.511c-.407 1.137-1.325 1.91-2.05 1.726-.725-.184-.982-1.254-.575-2.391.407-1.137 1.325-1.91 2.05-1.726.725.183.982 1.254.575 2.391z" fill="#fff"/></svg>