<svg xmlns="http://www.w3.org/2000/svg" version="1.2" width="729.162" height="86.576"><path d="M30.99 7.92c1.113-.643 2.485-.643 3.598 0l28.65 16.75c1.116.642 1.802 1.83 1.802 3.117v31.037c0 1.286-.686 2.474-1.8 3.118L34.593 78.627c-1.115.642-2.487.642-3.602 0l-6.98-4.28m-2.69-43.26v33.977c0 1.503-4.208 3.18-6.175 2.886-4.12-.83-8.312-3.46-12.476-5.91-1.115-.642-1.8-1.832-1.8-3.117v-31.14c0-1.286.685-2.473 1.8-3.116l28.32-16.75m20.66 29.37c-.706-7.354-7.873-6.97-11.987-6.95-3.794.018-9.143.82-9.22 6.676-.063 4.915 6.458 5.486 10.3 6 4.957.666 11.893 1.26 12.085 6.548.136 3.724-3.505 7.568-10.647 7.568-12.23 0-12.89-7.353-12.89-7.353m254.34-25.583h40.914m-40.916 9.224h40.916m-40.916 9.42h40.916m9.368-25.274c-6.568-6.964-17.36-11.51-29.576-11.51-20.023 0-36.255 12.205-36.255 27.27 0 10.15 7.375 19.003 18.31 23.7.487 1.592 1.696 4.727 3.133 6.75 1.593 2.245 5.925 5.756 5.925 5.756s.05-5.63.05-8.183c.326-.57.52-.797 1.165-.923 1.483 0 3.49.04 4.225.05 1.133.08 2.287.12 3.448.12 2.4 0 4.724-.175 6.994-.51m22.582-42.52c4.198 4.45 6.678 9.886 6.678 15.76 0 13.26-12.595 24.303-29.26 26.76 6.568 6.964 17.36 11.51 29.576 11.51 1.16 0 2.315-.04 3.448-.12.736-.01 2.743-.05 4.225-.05.644.126.837.35 1.164.923 0 2.555.05 8.183.05 8.183s4.33-3.51 5.924-5.755c1.436-2.023 2.645-5.157 3.132-6.75 10.934-4.697 18.31-13.55 18.31-23.7 0-15.065-16.232-27.27-36.255-27.27-2.4 0-4.724.175-6.994.51zM73.594 83.942s2.774-5.473 4.362-8.095c2.632-4.346 5.497-8.585 8.54-12.626 7.2-9.56 15.882-18.06 25.18-25.6 4.34-3.52 10.794-8.29 16.473-12.03 10.085-6.646 31.185-18.45 31.185-18.45s-20.82 12.745-30.76 19.602c-5.606 3.87-11.915 9.004-16.16 12.508-9.288 7.667-18.092 16.125-25.392 25.704-2.925 3.837-5.548 7.77-8.017 11.85-1.487 2.46-4.08 7.592-4.08 7.592zm9.508-15.37c-2.436-2.82-4.572-4.206-4.572-4.206s1.902-.14 3.6 1.48c0 0-1.357-3.5-1.972-6.353-.607-2.817-.238-5.782-.07-6.563.55 1.595 2.676 5.39 2.676 5.39s-.577-5.447-.156-8.06c.42-2.613 1.243-7.247 1.654-7.755-.116 1.158 2.342 7.4 2.342 7.4s-.243-5.45.793-7.878c2.416-5.658 11.987-14.035 11.987-14.035s-.52 2.672-.614 4.026c-.196 2.834.39 6.023.39 6.023s.425-4.8 1.216-8.372c.29-1.313 1.188-3.854 1.188-3.854l.513 2.372s.92-2.198 1.678-3.09c3.893-4.577 14.256-11.03 14.256-11.03s-.61 3.033-.214 5.735c.39 2.683.79 5.307.82 5.116.03-.17.114-4.282.57-6.362.576-2.64 2.713-7.64 2.713-7.64l.174 1.628s.553-.83.93-1.146c2.09-1.77 7.153-4.043 7.153-4.043s.138 3.94.566 5.853c.215.96.995 2.774.995 2.774s-.115-1.938-.115-2.908c0-2.443.286-7.32.286-7.32s4.716-1.57 7.165-1.895c2.208-.292 6.68-.03 6.68-.03s.515 1.924.91 2.834c.242.557.886 1.59.886 1.59s.127-1.277.12-1.957c-.016-1.338.08-2.126.08-2.126s3.59-1.688 5.53-1.933c1.95-.246 5.875.503 5.875.503s-.334.895-.368 1.365c-.023.316-.304 1.22-.304 1.22s.82-.62 1.06-.72c.682-.28 2.177-.39 2.177-.39s2.067 2.374 2.435 3.846c.422 1.684-.385 5.193-.385 5.193s-1.55-.68-2.348-.957c-.576-.202-1.755-.517-1.755-.517s1.138.774 1.603 1.273c.567.61 1.41 2.06 1.41 2.06s-.725.963-1.124 1.416c-.353.4-1.12 1.147-1.12 1.147s-.982-.135-1.47-.088c-.287.028-.838.216-.838.216s.467.236.647.418c.223.224.507.8.507.8s-1.834 2.023-2.788 3c-3.283 3.357-10.098 9.822-10.098 9.822s-2.088-1.47-3.203-2.09c-.95-.526-2.952-1.373-2.952-1.373s1.76 1.24 2.563 1.953c1.057.94 2.952 3.047 2.952 3.047s-3.045 2.194-4.518 3.354c-.646.51-1.893 1.584-1.893 1.584s-.948-.01-1.41.083c-.42.085-1.218.43-1.218.43s1.056.236 1.553.442c.49.203 1.395.775 1.395.775s-8.14-.255-12.202-.022c-1.346.077-4.017.47-4.017.47s2.594.22 3.874.442c2.477.433 7.343 1.74 7.343 1.74s-4.456 3.835-6.91 5.438c-.762.497-2.406 1.282-2.406 1.282s-3.883-.81-5.995-1.09c-1.47-.194-4.433-.31-4.433-.31s2.982.582 4.403 1.104c1.304.48 3.737 2.33 3.737 2.33s-7.815.883-11.74.377c-1.81-.23-3.08-.33-3.08-.33s1.2.598 2.97 1.076c3.367.91 8.39 1.49 8.39 1.49s-7.243 3.445-12.492 3.912c-1.74.098-5.203.49-5.203.49s3.688.816 5.565.9c1.755.078 5.258-.375 5.258-.375s-3.09 2.695-6.054 3.227c-1.05.196-3.483-.034-3.483-.034s2.045 1.18 2.823 1.506c.568.237 1.6.927 1.6.927l.044.28c.002.12-.045.36-.045.36s-4.604-.385-7.68-.844c-1.143-.17-3.447-.343-3.447-.343s2.23.803 3.31 1.293c2.392 1.09 5.518 2.673 5.518 2.673s-2.163.584-3.274.66c-.88.062-2.647-.16-2.647-.16s1.4.75 1.67.96c.51.404 1.36 1.404 1.36 1.404s-3.785.796-5.692.677c-1.465-.092-3.85-.815-4.277-1.062 1.24.716 2.083 3.814 2.083 3.814s-4.133-2.874-6.392-3.958c-1.6-.768-3.17-.963-5.018-1.78zm108.727 8.29s15.632-17.2 23.36-25.883c6.276-7.057 18.25-20.44 18.683-21.298-3.078-2.293-3.406-17.705 2.408-21.432 14.42-9.137 21.74 1.73 21.74 1.73l-12.906 6.243 7.354 16.65s-4.7 2.578-7.216 3.47c-1.882.668-3.673 1.42-5.828 1.388L204.04 86.02c-5.028-.025-9.382-1.44-12.21-9.158zm30.573-15.77l16.605 23.403c4.774-1.36 9.723-2.287 12.35-9.02l-22.242-23.777m-7.35-7.858l-12.592-13.463c-.744-.618-.964-2.023-.97-3.747l-6.8-7.77c2.455-12.252 9.842-14.966 17.76-16.652-7.604-4.2-17.927-.425-31.082 11.656-1.29 5.998-4.78 9.668-12.35 9.02l-4.44 3.884c1.376 3.672 2.096 7.522 7.91 9.99l5.688-4.162c.384-5.297 3.754-6.794 8.187-6.938l6.52 7.91c1.39.092 2.776-.238 4.164 1.248l11.42 16.096m26.74-19.217l4.3-2.012-4.092-9.575-4.44 2.22zm6.035-9.158l12.905-5.76s.633 4.952-.486 7.008c-1.768 3.25-8.88 6.66-8.88 6.66" fill="none" stroke="#908f8f" stroke-width="1.111"/><path d="M560.346 22.49c-11.776 0-21.326 9.547-21.326 21.325 0 9.422 6.11 17.416 14.584 20.236 1.066.2 1.457-.46 1.457-1.024 0-.51-.02-2.188-.027-3.97-5.933 1.29-7.185-2.516-7.185-2.516-.97-2.466-2.368-3.12-2.368-3.12-1.936-1.325.145-1.297.145-1.297 2.14.15 3.27 2.198 3.27 2.198 1.9 3.26 4.988 2.32 6.205 1.774.19-1.378.744-2.32 1.354-2.852-4.737-.538-9.716-2.367-9.716-10.538 0-2.328.833-4.23 2.197-5.724-.22-.537-.95-2.706.207-5.644 0 0 1.79-.573 5.866 2.186 1.7-.473 3.525-.71 5.338-.718 1.812.008 3.638.245 5.342.718 4.07-2.76 5.86-2.186 5.86-2.186 1.16 2.937.43 5.106.208 5.644 1.367 1.493 2.195 3.396 2.195 5.724 0 8.19-4.987 9.994-9.736 10.522.765.662 1.446 1.96 1.446 3.95 0 2.852-.026 5.15-.026 5.85 0 .57.384 1.233 1.465 1.024 8.467-2.823 14.57-10.814 14.57-20.233 0-11.778-9.548-21.326-21.325-21.326" fill="#1b1817" fill-rule="evenodd"/><path d="M523.655 35.1V19.54h-74.56V35.1h-5.833v31.88h86.113V35.1z" fill="#f00"/><path d="M441.707 67.71V33.56h5.84V17.988h77.747V33.56h5.726v34.15h-89.313zm2.435-1.227l84.128.074-.365-29.88h-5.728V21.102H450.66v15.575h-5.84l-.57 28.818-.11.99z" fill="#eb1019"/><path d="M455.64 28.46l7.81-2.65-.03-10.59-10.438 2.634v7.012z" fill="#fff"/><path d="M518.08 53.332l.01 13.905h-63.525l.035-13.616 17.628 3.985zm-11.017-9.58l-4.792-1.988-9.962-6.803-11.905 3.625-25.815-1.955v9.157l16.37 4.696 46.773-4.155v-9.553z" fill="#bd101d" stroke="#bd101d" stroke-width=".412"/><path d="M450.522 37.07h4.066l7.526 11.33 2.775.758 3.767 15.617 1.955.81 1.383 5.715H482.9l-5.243-21.674 14.815-9.62 8.057 6.81 1.955-.768.743 2.024 14.5-1.302-1.258-3.213-8.16-1.995-14.773-12.037-16.1 6.106-4.945-6.51 7.452-7.574h7.102l2.8 2.36v-2.36h5.583l-1.35-3.133-16.35-2.59-15.094 9.668-15.106 5.065-2.95 3.12v8.37l4.165 1.773v-4.834l1.772 1.39z" fill="#fff"/><path d="M402.18 61.976c-5.33 0-10.29-1.562-14.465-4.24.738.088 1.49.133 2.25.133 4.422 0 8.49-1.51 11.72-4.04-4.13-.077-7.614-2.805-8.814-6.554.578.11 1.17.17 1.777.17.86 0 1.694-.116 2.486-.332-4.317-.867-7.57-4.68-7.57-9.252l.002-.12c1.272.708 2.727 1.132 4.274 1.18-2.533-1.69-4.2-4.58-4.2-7.853 0-1.73.466-3.35 1.278-4.745 4.654 5.71 11.607 9.465 19.45 9.86-.162-.692-.245-1.412-.245-2.15 0-5.212 4.225-9.437 9.436-9.437 2.713 0 5.165 1.145 6.887 2.98 2.15-.424 4.17-1.21 5.992-2.29-.706 2.202-2.2 4.052-4.15 5.22 1.91-.228 3.727-.735 5.42-1.486-1.265 1.892-2.865 3.554-4.708 4.885.02.404.028.81.028 1.22 0 12.47-9.49 26.847-26.847 26.847" fill="#6babe1"/><path d="M594.842 21.81h35.407c1.755 0 3.17 1.304 3.17 2.923v35.752c0 1.62-1.415 2.923-3.17 2.923h-35.41c-1.757 0-3.17-1.304-3.17-2.923V24.733c0-1.62 1.413-2.923 3.17-2.923z" fill="#cc2b29"/><path d="M597.945 26.3v11.45h8.245v-3.366h1.9v15.77h-2.78v8.762h14.41v-8.76h-2.766V34.383h1.913v3.365h8.28V26.3h-29.203zm2.52 2.374h24.162v6.723h-3.4v-3.33h-6.793v20.678h2.98v3.798h-9.738v-3.798h2.904V32.067h-6.716v3.33h-3.4v-6.723z" fill="#fff"/><path d="M729.162 63.407V21.81h-38.34v41.597z"/><path d="M725.63 39.84v20.2h-31.277V48.31h6.108c.048.002.086.02.094.074.19 6.41 4.095 9.79 8.462 10.026 6.323.34 8.925-4.334 9.123-8.71 0-4.38-3.408-6.686-7.495-8.578-2.45-1.3-4.91-3.152-4.848-5.627.063-2.5 1.89-5.43 5.174-5.43 3.285 0 5.098 3 5.15 7.1-.017 1.552 1.14 2.64 3.236 2.646 2.103 0 4.556.03 6.276.03z" fill="#f00"/><path d="M694.353 44.726V25.178h31.277v11.077h-5.998c-.175-.036-.175-.086-.206-.222-.232-6.3-4.285-9.227-8.457-9.227-4.65 0-8.367 2.648-8.775 8.27-.278 3.824 3.057 7.126 7.144 9.018 2.45 1.3 5.273 3.11 5.217 5.606-.062 2.784-1.396 5.125-5.218 5.125-2.8 0-5.294-2.184-5.294-6.516 0-1.52-.958-3.586-3.21-3.586z" fill="#ff0"/><g fill="none"><path d="M663.047 30.84l-16.196 7.996V55.1l16.197 8.13 16.195-8.13V38.835l-16.195-7.996z" fill="#d4eb95"/><path d="M663.047 28.255l-16.196 7.997v16.263l16.197 8.132 16.195-8.132V36.252l-16.195-7.997z" fill="#96dc75"/><path d="M663.047 21.708l-16.196 7.996v16.264l16.197 8.132 16.195-8.132V29.704l-16.195-7.996z" opacity=".553" fill="#317342"/><path d="M663.047 37.245l-16.196-7.61v16.31l16.197 8.155 16.195-8.156v-16.31l-16.195 7.61z" opacity=".553" fill="#34954c"/></g></svg>