<svg xmlns="http://www.w3.org/2000/svg" width="1124.731" height="351.571"><path d="M19.997 0L0 97.532l57.353 54.113L20.09 218.07l75.823 133.5h82.95l76.148-133.5-37.586-66.425 55.41-54.113L254.593 0l-77.997 103.878h-78.09z" fill="#6ccb94" fill-opacity=".996"/><path d="M57.353 151.645l80.028 66.426-38.876-114.19z" fill="#64c48c" fill-opacity=".996"/><path d="M255.01 218.07l-37.587-66.426-80.04 66.426z" fill="#6ecc95" fill-opacity=".996"/><path d="M95.912 351.57h82.95l-41.48-133.5z" fill="#5ebe86" fill-opacity=".996"/><path d="M217.423 151.645l-80.04 66.426 39.213-114.19z" fill="#76d29c" fill-opacity=".996"/><path d="M20.09 218.07l37.262-66.426 80.028 66.426z" fill="#5dbd85" fill-opacity=".996"/><path d="M254.593 0l18.238 97.532-55.408 54.113-40.828-47.767z" fill="#74d09b" fill-opacity=".996"/><path d="M137.38 218.07l41.483 133.5 76.147-133.5z" fill="#64c48c" fill-opacity=".996"/><path d="M137.38 218.07L95.9 351.57l-75.81-133.5z" fill="#58b880" fill-opacity=".996"/><path d="M19.997 0L0 97.532l57.353 54.113 41.152-47.767z" fill="#5fbf87" fill-opacity=".996"/><path d="M137.38 218.07l39.215-114.192h-78.09z" fill="#6ecc95" fill-opacity=".996"/><path d="M331.274 300.22v-151.5h12.737c2.98 0 4.842 1.414 5.587 4.245l1.788 12.96c4.767-5.735 10.242-10.353 16.424-13.854 6.256-3.574 13.406-5.362 21.45-5.362 6.48 0 12.328 1.266 17.542 3.8 5.288 2.457 9.795 6.144 13.52 11.06 3.798 4.916 6.702 10.986 8.714 18.21 2.01 7.152 3.016 15.42 3.017 24.805 0 8.417-1.117 16.238-3.352 23.463-2.234 7.15-5.474 13.37-9.72 18.658-4.245 5.288-9.384 9.46-15.417 12.513-6.033 2.98-12.85 4.47-20.446 4.47-6.927 0-12.81-1.118-17.653-3.353-4.84-2.235-9.162-5.437-12.96-9.61v49.496h-21.228m51.06-136.418c-6.407 0-11.993 1.452-16.76 4.357-4.693 2.83-9.05 6.89-13.072 12.177v54.187c3.575 4.693 7.448 8.007 11.62 9.944 4.246 1.862 8.975 2.793 14.19 2.793 10.203 0 18.06-3.65 23.573-10.948 5.512-7.3 8.268-17.876 8.268-31.73 0-7.225-.633-13.407-1.9-18.547-1.265-5.14-3.09-9.348-5.474-12.625-2.383-3.352-5.288-5.773-8.714-7.262-3.426-1.564-7.337-2.346-11.73-2.346m115.223-16.87c8.34 0 15.864 1.377 22.568 4.133 6.704 2.68 12.402 6.555 17.094 11.62 4.693 5.065 8.305 11.21 10.838 18.435 2.532 7.15 3.8 15.195 3.8 24.133 0 8.938-1.267 17.02-3.8 24.245-2.533 7.225-6.145 13.37-10.838 18.435-4.692 5.065-10.39 8.975-17.094 11.73-6.704 2.682-14.227 4.023-22.57 4.023-8.34 0-15.902-1.34-22.68-4.022-6.704-2.756-12.44-6.666-17.206-11.73-4.692-5.066-8.305-11.21-10.837-18.436-2.533-7.225-3.8-15.307-3.8-24.245s1.267-16.982 3.8-24.133c2.532-7.225 6.145-13.37 10.837-18.435 4.767-5.065 10.502-8.938 17.206-11.62 6.778-2.756 14.338-4.134 22.68-4.134m0 100.22c10.876 0 18.994-3.65 24.357-10.95 5.363-7.298 8.044-17.577 8.044-30.836 0-13.184-2.682-23.463-8.045-30.837-5.363-7.374-13.482-11.06-24.356-11.06-11.025 0-19.255 3.686-24.693 11.06-5.363 7.374-8.044 17.653-8.044 30.837 0 13.258 2.68 23.537 8.044 30.837 5.437 7.3 13.668 10.95 24.692 10.95m89.305-98.43v72.286c0 8.193 1.9 14.6 5.698 19.217 3.8 4.544 9.57 6.815 17.318 6.815 5.662 0 10.95-1.303 15.866-3.91 4.99-2.68 9.608-6.368 13.854-11.06v-83.35h21.228v113.404H648.09c-2.978 0-4.84-1.415-5.585-4.246l-1.676-11.73c-4.917 5.287-10.392 9.57-16.425 12.847-5.96 3.277-12.886 4.916-20.78 4.916-6.258 0-11.77-1.044-16.537-3.13-4.693-2.085-8.64-4.99-11.843-8.714-3.128-3.8-5.512-8.305-7.15-13.52-1.64-5.287-2.458-11.134-2.458-17.54V148.72h21.228m179.506 20.89c-.595.82-1.228 1.453-1.898 1.9-.596.447-1.453.67-2.57.67-1.192 0-2.458-.447-3.8-1.34-1.34-.97-2.98-1.975-4.915-3.017-1.937-1.117-4.32-2.123-7.15-3.017-2.83-.968-6.294-1.452-10.39-1.452-5.438 0-10.243.968-14.414 2.905-4.17 1.936-7.672 4.73-10.502 8.38-2.755 3.65-4.84 8.043-6.256 13.183-1.415 5.14-2.123 10.95-2.123 17.43 0 6.704.746 12.662 2.236 17.876 1.564 5.213 3.724 9.608 6.48 13.183 2.83 3.575 6.22 6.294 10.167 8.156 4.022 1.86 8.49 2.792 13.407 2.792 4.767 0 8.677-.56 11.73-1.676 3.055-1.192 5.587-2.458 7.598-3.8 2.01-1.34 3.687-2.57 5.028-3.686 1.415-1.192 2.83-1.788 4.246-1.788 1.788 0 3.128.67 4.022 2.01l6.033 7.71c-2.607 3.128-5.512 5.81-8.715 8.044-3.203 2.235-6.63 4.06-10.28 5.475-3.65 1.416-7.448 2.46-11.395 3.13-3.948.67-7.97 1.005-12.066 1.005-7.075 0-13.667-1.304-19.775-3.91-6.108-2.607-11.433-6.406-15.977-11.396-4.47-4.99-8.007-11.1-10.614-18.324-2.533-7.3-3.8-15.567-3.8-24.803 0-8.417 1.155-16.163 3.464-23.24 2.384-7.15 5.847-13.332 10.39-18.546s10.13-9.273 16.76-12.178c6.704-2.906 14.375-4.358 23.016-4.358 8.12 0 15.232 1.303 21.34 3.91 6.182 2.607 11.62 6.257 16.312 10.95l-5.586 7.82m26.777 92.51V97.323h21.228v65.92c4.767-4.917 10.055-8.865 15.865-11.844 5.81-2.98 12.513-4.47 20.11-4.47 6.183 0 11.62 1.044 16.313 3.13 4.767 2.085 8.752 5.027 11.955 8.826 3.203 3.724 5.623 8.23 7.262 13.52 1.64 5.213 2.455 11.023 2.458 17.428v72.287H867.11v-72.286c0-8.193-1.9-14.562-5.698-19.105-3.8-4.62-9.57-6.928-17.318-6.928-5.735 0-11.06 1.34-15.977 4.022s-9.497 6.368-13.742 11.06v83.238h-21.228m201.032 0c-2.98 0-4.842-1.416-5.587-4.247l-1.9-13.295c-2.383 2.905-4.952 5.55-7.708 7.933-2.756 2.31-5.698 4.32-8.826 6.033-3.13 1.64-6.444 2.905-9.945 3.8-3.5.893-7.262 1.34-11.284 1.34-6.48 0-12.363-1.23-17.652-3.687-5.214-2.533-9.72-6.258-13.52-11.174-3.723-4.916-6.59-10.95-8.602-18.1-2.01-7.225-3.017-15.53-3.017-24.915 0-8.416 1.116-16.2 3.35-23.35 2.236-7.225 5.476-13.482 9.72-18.77 4.247-5.288 9.386-9.422 15.42-12.402 6.032-3.054 12.848-4.58 20.445-4.58 6.853 0 12.7 1.154 17.54 3.463 4.917 2.236 9.274 5.4 13.073 9.498V97.325h21.228v164.797H994.18m-38.323-15.53c6.33 0 11.88-1.415 16.647-4.246 4.767-2.905 9.162-7.002 13.184-12.29V175.98c-3.575-4.767-7.486-8.082-11.73-9.944-4.247-1.936-8.94-2.905-14.08-2.905-10.203 0-18.062 3.65-23.573 10.95-5.512 7.3-8.268 17.876-8.268 31.73 0 7.226.633 13.408 1.9 18.548 1.265 5.14 3.09 9.385 5.474 12.737 2.385 3.277 5.29 5.698 8.716 7.262 3.426 1.49 7.337 2.235 11.73 2.235m68.097 15.53V97.323h21.228v67.37c4.694-5.436 10.02-9.756 15.978-12.96 6.033-3.202 12.886-4.803 20.558-4.803 6.63 0 12.588 1.304 17.876 3.91 5.363 2.533 9.906 6.183 13.63 10.95 3.725 4.767 6.555 10.614 8.492 17.54 2.01 6.854 3.016 14.563 3.017 23.128 0 9.162-1.154 17.504-3.463 25.027-2.235 7.523-5.475 13.966-9.72 19.33-4.17 5.362-9.273 9.533-15.307 12.512-5.96 2.905-12.7 4.357-20.223 4.357-7.448 0-13.705-1.378-18.77-4.134-4.99-2.83-9.385-6.704-13.184-11.62l-1.006 9.72c-.67 2.98-2.458 4.47-5.363 4.47h-13.742m50.724-98.32c-6.33 0-11.843 1.45-16.536 4.356-4.618 2.83-8.938 6.89-12.96 12.178v54.187c3.575 4.694 7.486 8.008 11.73 9.945 4.247 1.862 8.865 2.793 13.855 2.793 10.353 0 18.286-3.65 23.798-10.95 5.512-7.298 8.268-18.322 8.268-33.07 0-13.556-2.457-23.5-7.373-29.83-4.842-6.407-11.77-9.61-20.78-9.61" style="text-align:start;line-height:125%;-inkscape-font-specification:Lato Medium" font-size="144" font-weight="500" letter-spacing="-.153" word-spacing="0" fill="#3e3e3e" font-family="Lato"/></svg>
