<svg xmlns="http://www.w3.org/2000/svg" width="1125.434" height="351.57"><g><g fill-opacity=".996"><path d="M19.997 0l-19.997 97.532 57.353 54.113-37.263 66.426 75.823 133.5h82.951l76.147-133.5-37.587-66.426 55.409-54.113-18.238-97.532-77.998 103.878h-78.091z" fill="#6ccb94"/><path d="M57.353 151.645l80.028 66.426-38.877-114.192z" fill="#64c48c"/><path d="M255.01 218.07l-37.587-66.426-80.041 66.426z" fill="#6ecc95"/><path d="M95.912 351.57h82.951l-41.482-133.5z" fill="#5ebe86"/><path d="M217.423 151.645l-80.041 66.426 39.214-114.192z" fill="#76d29c"/><path d="M20.463 218.07l36.889-66.426 80.028 66.426z" fill="#5dbd85"/><path d="M254.593 0l18.238 97.532-55.409 54.113-40.828-47.767z" fill="#74d09b"/><path d="M137.381 218.07l41.482 133.5 76.147-133.5z" fill="#64c48c"/><path d="M137.381 218.07l-41.482 133.5-76.147-133.5z" fill="#58b880"/><path d="M19.997 0l-19.997 97.532 57.168 54.113 41.337-47.767z" fill="#5fbf87"/><path d="M137.381 218.07l39.214-114.192h-78.091z" fill="#6ecc95"/></g><g font-size="144" font-weight="500" letter-spacing="-.153" word-spacing="0" fill="#3e3e3e" font-family="Lato"><path d="M331.274 300.22v-151.501h12.737c2.979 0 4.841 1.415 5.586 4.246l1.788 12.96c4.767-5.735 10.242-10.353 16.424-13.854 6.257-3.575 13.407-5.363 21.452-5.363 6.48 0 12.327 1.266 17.541 3.799 5.288 2.458 9.795 6.145 13.519 11.061 3.799 4.916 6.703 10.986 8.715 18.211 2.011 7.151 3.016 15.418 3.017 24.804 0 8.417-1.117 16.238-3.352 23.463-2.235 7.151-5.475 13.37-9.72 18.658-4.246 5.288-9.385 9.46-15.418 12.513-6.033 2.979-12.849 4.469-20.446 4.469-6.927 0-12.811-1.117-17.653-3.352-4.841-2.235-9.162-5.437-12.96-9.609v49.495h-21.228m51.059-136.418c-6.406 0-11.992 1.452-16.759 4.357-4.693 2.83-9.05 6.89-13.072 12.178v54.187c3.575 4.693 7.448 8.007 11.62 9.944 4.246 1.862 8.975 2.793 14.189 2.793 10.204 0 18.062-3.65 23.574-10.949 5.512-7.299 8.268-17.876 8.268-31.73 0-7.225-.633-13.407-1.899-18.547-1.266-5.139-3.091-9.348-5.475-12.625-2.384-3.352-5.289-5.773-8.715-7.262-3.426-1.564-7.337-2.346-11.731-2.346" style="text-align:start;line-height:125%;-inkscape-font-specification:Lato Medium"/><path d="M497.559 146.931c8.342 0 15.865 1.378 22.569 4.134 6.704 2.681 12.402 6.555 17.094 11.62 4.693 5.065 8.305 11.21 10.838 18.435 2.532 7.151 3.799 15.195 3.799 24.133 0 8.938-1.266 17.02-3.799 24.245-2.533 7.225-6.145 13.37-10.838 18.435-4.692 5.065-10.391 8.975-17.094 11.731-6.704 2.681-14.227 4.022-22.569 4.022-8.342 0-15.903-1.341-22.681-4.022-6.704-2.756-12.439-6.666-17.206-11.731-4.692-5.065-8.305-11.21-10.837-18.435-2.533-7.225-3.799-15.307-3.799-24.245s1.266-16.982 3.799-24.133c2.532-7.225 6.145-13.37 10.837-18.435 4.767-5.065 10.502-8.938 17.206-11.62 6.778-2.756 14.338-4.134 22.681-4.134m0 100.219c10.875 0 18.993-3.65 24.356-10.949 5.363-7.299 8.044-17.578 8.044-30.837 0-13.184-2.681-23.463-8.044-30.837-5.363-7.374-13.482-11.061-24.356-11.061-11.024 0-19.254 3.687-24.692 11.061-5.363 7.374-8.044 17.653-8.044 30.837 0 13.258 2.681 23.537 8.044 30.837 5.437 7.299 13.668 10.949 24.692 10.949" style="text-align:start;line-height:125%;-inkscape-font-specification:Lato Medium"/><path d="M586.865 148.719v72.287c0 8.193 1.899 14.599 5.698 19.217 3.799 4.544 9.571 6.815 17.318 6.815 5.661 0 10.949-1.303 15.865-3.91 4.99-2.681 9.608-6.368 13.854-11.061v-83.348h21.228v113.403h-12.737c-2.979 0-4.842-1.415-5.586-4.246l-1.676-11.731c-4.916 5.288-10.391 9.571-16.424 12.848-5.959 3.277-12.886 4.916-20.781 4.916-6.257 0-11.769-1.043-16.536-3.128-4.693-2.086-8.64-4.99-11.843-8.715-3.128-3.799-5.512-8.305-7.15-13.519-1.639-5.288-2.458-11.135-2.458-17.541v-72.287h21.228" style="text-align:start;line-height:125%;-inkscape-font-specification:Lato Medium"/><path d="M766.371 169.611c-.596.819-1.229 1.452-1.899 1.899-.596.447-1.453.67-2.57.67-1.192 0-2.458-.447-3.799-1.341-1.341-.968-2.98-1.974-4.916-3.016-1.937-1.117-4.32-2.123-7.15-3.017-2.831-.968-6.294-1.452-10.391-1.452-5.437 0-10.242.968-14.413 2.905-4.171 1.937-7.672 4.73-10.502 8.38-2.756 3.65-4.841 8.044-6.257 13.184-1.415 5.14-2.123 10.949-2.123 17.43 0 6.704.745 12.662 2.235 17.876 1.564 5.214 3.724 9.609 6.48 13.184 2.83 3.575 6.219 6.294 10.167 8.156 4.022 1.862 8.491 2.793 13.407 2.793 4.767 0 8.677-.559 11.731-1.676 3.054-1.192 5.586-2.458 7.597-3.799 2.011-1.341 3.687-2.57 5.028-3.687 1.415-1.192 2.83-1.788 4.246-1.788 1.788 0 3.128.671 4.022 2.011l6.033 7.709c-2.607 3.128-5.512 5.81-8.715 8.044-3.203 2.235-6.629 4.059-10.279 5.475-3.65 1.415-7.449 2.458-11.396 3.128-3.948.67-7.97 1.006-12.066 1.006-7.076 0-13.668-1.304-19.776-3.91-6.108-2.607-11.433-6.406-15.977-11.396-4.469-4.99-8.007-11.098-10.614-18.323-2.533-7.299-3.799-15.567-3.799-24.803 0-8.417 1.154-16.163 3.463-23.239 2.384-7.151 5.847-13.333 10.391-18.547s10.13-9.273 16.759-12.178c6.704-2.905 14.375-4.357 23.016-4.357 8.119 0 15.232 1.303 21.34 3.91 6.182 2.607 11.619 6.257 16.312 10.949l-5.586 7.821" style="text-align:start;line-height:125%;-inkscape-font-specification:Lato Medium"/><path d="M793.147 262.121v-164.797h21.228v65.919c4.767-4.916 10.055-8.864 15.865-11.843 5.81-2.979 12.513-4.469 20.111-4.469 6.182 0 11.619 1.043 16.312 3.128 4.767 2.086 8.752 5.028 11.955 8.827 3.203 3.724 5.623 8.231 7.262 13.519 1.639 5.214 2.458 11.024 2.458 17.429v72.287h-21.228v-72.287c0-8.193-1.899-14.562-5.698-19.105-3.799-4.618-9.571-6.927-17.318-6.927-5.735 0-11.061 1.341-15.977 4.022s-9.497 6.368-13.742 11.061v83.237h-21.228" style="text-align:start;line-height:125%;-inkscape-font-specification:Lato Medium"/><path d="M994.179 262.121c-2.98 0-4.841-1.415-5.586-4.246l-1.899-13.295c-2.384 2.905-4.953 5.549-7.709 7.933-2.756 2.309-5.698 4.32-8.826 6.033-3.128 1.639-6.443 2.905-9.944 3.799-3.501.894-7.262 1.341-11.284 1.341-6.48 0-12.364-1.229-17.653-3.687-5.214-2.532-9.72-6.257-13.519-11.173-3.724-4.916-6.592-10.949-8.603-18.1-2.011-7.225-3.017-15.53-3.017-24.915 0-8.417 1.117-16.2 3.352-23.351 2.235-7.225 5.475-13.482 9.72-18.77 4.246-5.288 9.385-9.422 15.418-12.402 6.033-3.054 12.849-4.581 20.446-4.581 6.853 0 12.7 1.155 17.541 3.464 4.916 2.235 9.273 5.4 13.072 9.497v-62.343h21.228v164.797h-12.737m-38.322-15.53c6.331 0 11.88-1.415 16.647-4.246 4.767-2.905 9.162-7.002 13.184-12.29v-54.076c-3.575-4.767-7.486-8.082-11.731-9.944-4.246-1.936-8.938-2.905-14.078-2.905-10.204 0-18.063 3.65-23.574 10.949-5.512 7.3-8.268 17.876-8.268 31.731 0 7.225.633 13.407 1.899 18.547 1.266 5.139 3.091 9.385 5.475 12.737 2.384 3.277 5.288 5.698 8.715 7.262 3.426 1.49 7.337 2.235 11.731 2.235" style="text-align:start;line-height:125%;-inkscape-font-specification:Lato Medium"/><path d="M1023.953 262.121v-164.797h21.228v67.371c4.693-5.437 10.018-9.757 15.977-12.96 6.033-3.203 12.886-4.804 20.558-4.804 6.629 0 12.588 1.303 17.876 3.91 5.363 2.532 9.906 6.182 13.631 10.949 3.724 4.767 6.554 10.614 8.491 17.541 2.011 6.853 3.016 14.562 3.017 23.127 0 9.162-1.155 17.504-3.464 25.027-2.235 7.523-5.475 13.966-9.72 19.329-4.171 5.363-9.273 9.534-15.307 12.513-5.959 2.905-12.7 4.357-20.223 4.357-7.448 0-13.705-1.378-18.77-4.134-4.991-2.83-9.385-6.704-13.184-11.62l-1.006 9.72c-.67 2.98-2.458 4.469-5.363 4.469h-13.742m50.724-98.32c-6.331 0-11.843 1.452-16.536 4.357-4.618 2.83-8.938 6.89-12.96 12.178v54.187c3.575 4.693 7.486 8.007 11.731 9.944 4.246 1.862 8.864 2.793 13.854 2.793 10.353 0 18.286-3.65 23.798-10.949 5.512-7.299 8.268-18.323 8.268-33.071 0-13.556-2.458-23.5-7.374-29.831-4.842-6.406-11.769-9.609-20.781-9.609" style="text-align:start;line-height:125%;-inkscape-font-specification:Lato Medium"/></g></g></svg>