<svg xmlns="http://www.w3.org/2000/svg" width="272.832" height="351.57"><g fill-opacity=".996"><path d="M19.997 0l-19.997 97.532 57.353 54.113-37.263 66.426 75.823 133.5h82.951l76.147-133.5-37.587-66.426 55.409-54.113-18.238-97.532-77.998 103.878h-78.091z" fill="#6ccb94"/><path d="M57.353 151.645l80.028 66.426-38.877-114.192z" fill="#64c48c"/><path d="M255.01 218.07l-37.587-66.426-80.041 66.426z" fill="#6ecc95"/><path d="M95.912 351.57h82.951l-41.482-133.5z" fill="#5ebe86"/><path d="M217.423 151.645l-80.041 66.426 39.214-114.192z" fill="#76d29c"/><path d="M20.463 218.07l36.889-66.426 80.028 66.426z" fill="#5dbd85"/><path d="M254.593 0l18.238 97.532-55.409 54.113-40.828-47.767z" fill="#74d09b"/><path d="M137.381 218.07l41.482 133.5 76.147-133.5z" fill="#64c48c"/><path d="M137.381 218.07l-41.482 133.5-76.147-133.5z" fill="#58b880"/><path d="M19.997 0l-19.997 97.532 57.168 54.113 41.337-47.767z" fill="#5fbf87"/><path d="M137.381 218.07l39.214-114.192h-78.091z" fill="#6ecc95"/></g></svg>