<?xml version="1.0" standalone="yes"?>

<svg version="1.1" viewBox="0.0 0.0 365.3333333333333 537.007874015748" fill="none" stroke="none" stroke-linecap="square" stroke-miterlimit="10" xmlns="http://www.w3.org/2000/svg" xmlns:xlink="http://www.w3.org/1999/xlink"><clipPath id="p.0"><path d="m0 0l365.33334 0l0 537.0079l-365.33334 0l0 -537.0079z" clip-rule="nonzero"></path></clipPath><g clip-path="url(#p.0)"><path fill="#000000" fill-opacity="0.0" d="m0 0l365.33334 0l0 537.0079l-365.33334 0z" fill-rule="nonzero"></path><path fill="#6aa84f" d="m119.08185 379.0812c-2.1666641 -8.8333435 -19.33464 -31.0 -26.501312 -44.0c-7.166664 -13.0 -11.832016 -24.08313 -16.498688 -34.0c-4.666664 -9.916901 -8.251091 -17.584442 -11.501312 -25.501312c-3.2502174 -7.9169006 -5.0835495 -13.583557 -8.0 -22.000015c-2.9164467 -8.416443 -6.665352 -19.082245 -9.498684 -28.498688c-2.8333359 -9.416443 -5.66798 -19.583115 -7.501316 -28.0c-1.8333321 -8.416885 -3.2489052 -15.167984 -3.498684 -22.501312c-0.24978256 -7.3333282 0.41688538 -13.6653595 2.0 -21.498688c1.5831146 -7.8333282 4.165352 -16.917755 7.498684 -25.501312c3.3333359 -8.5835495 8.417763 -18.166664 12.501316 -26.0c4.0835495 -7.8333282 7.333332 -13.916885 11.999996 -21.0c4.6666718 -7.0831146 9.083557 -14.415573 16.0 -21.498684c6.9164505 -7.0831146 16.415573 -14.833336 25.498688 -21.0c9.083115 -6.166668 20.249786 -12.500002 29.0 -16.000002c8.750214 -3.5 15.001312 -3.7497807 23.501312 -5.0c8.5 -1.2502184 18.082245 -2.1679792 27.498688 -2.5013123c9.416443 -0.33333302 19.666672 -0.49868774 29.0 0.50131226c9.333328 1.0 19.583115 3.1653538 27.0 5.4986877c7.4168854 2.333334 11.167969 4.834646 17.501312 8.501312c6.3333435 3.666666 15.332031 9.165354 20.498688 13.498686c5.1666565 4.333336 7.334656 8.001316 10.501312 12.501316c3.1666565 4.5 5.665344 8.998684 8.498688 14.498684c2.8333435 5.5 6.1679688 11.834648 8.501312 18.501312c2.3333435 6.6666718 3.7489014 13.6653595 5.4986877 21.498688c1.7497864 7.833336 3.5 17.251099 5.0 25.501312c1.5 8.250214 3.3333435 16.833328 4.0 24.0c0.6666565 7.1666718 0.1666565 12.750214 0 19.0c-0.1666565 6.2497864 -0.3333435 12.1653595 -1.0 18.498688c-0.6666565 6.3333282 -2.2502136 14.917755 -3.0 19.501312c-0.7497864 4.583557 -0.16534424 3.5 -1.4986877 8.0c-1.3333435 4.5 -3.7510986 12.250214 -6.5013123 19.0c-2.7502136 6.7497864 -6.5 13.998703 -10.0 21.498703c-3.5 7.5 -6.7502136 14.667969 -11.0 23.501312c-4.2497864 8.833313 -9.415558 19.998688 -14.498688 29.498688c-5.0830994 9.5 -11.583099 20.001312 -16.0 27.501312c-4.41687 7.5 -8.3346405 13.165344 -10.501312 17.498688c-2.1666718 4.333313 -1.9986877 5.8346252 -2.4986877 8.501312c-0.5 2.6666565 -0.9177551 4.665344 -0.50131226 7.4986877c0.41644287 2.833313 0.5831146 7.0844116 3.0 9.501312c2.4168854 2.41687 7.084442 4.6666565 11.501312 5.0c4.4169006 0.333313 10.6666565 -0.5 15.0 -3.0c4.3333435 -2.5 7.7502136 -8.416473 11.0 -12.0c3.2497864 -3.5835571 5.665344 -6.584442 8.498688 -9.501312c2.8333435 -2.9169006 5.5013123 -5.9169006 8.501312 -8.0c3.0 -2.08313 6.665344 -4.082245 9.498688 -4.4986877c2.8333435 -0.4164734 5.417755 0.5835266 7.5013123 2.0c2.0835571 1.4164429 3.6666565 3.9986877 5.0 6.4986877c1.3333435 2.5 2.2502136 4.917755 3.0 8.501312c0.7497864 3.5835266 1.7489014 8.41687 1.4986877 13.0c-0.25021362 4.5830994 -0.7502136 10.082214 -3.0 14.498688c-2.2497864 4.416443 -5.9986877 8.1666565 -10.498688 12.0c-4.5 3.833313 -11.167969 7.916443 -16.501312 11.0c-5.3333435 3.0835266 -9.915558 6.251068 -15.498688 7.5013123c-5.5830994 1.2502136 -12.916443 0.833313 -18.0 0c-5.083557 -0.8333435 -8.584412 -3.4164734 -12.501312 -5.0c-3.9168854 -1.5835571 -7.1666718 -3.0013123 -11.0 -4.5013123c-3.8333282 -1.5 -11.250214 -5.248932 -12.0 -4.4986877c-0.7497864 0.7502136 5.3346405 6.0835266 7.5013123 9.0c2.1666718 2.9164429 3.832016 5.915558 5.4986877 8.498688c1.6666718 2.5830994 3.0013123 3.6666565 4.5013123 7.0c1.5 3.333313 3.6653442 7.5 4.4986877 13.0c0.8333435 5.5 1.1679688 13.6666565 0.50131226 20.0c-0.6666565 6.333313 -3.0844269 13.583099 -4.5013123 18.0c-1.4168854 4.41687 -1.5835571 4.8346252 -4.0 8.501312c-2.4164429 3.6666565 -6.6653595 9.665344 -10.498688 13.498688c-3.8333282 3.833313 -8.417755 7.4177246 -12.501312 9.501282c-4.083557 2.0835571 -8.416885 2.666687 -12.0 3.0c-3.5831146 0.33337402 -6.7489014 0.41693115 -9.498688 -1.0c-2.7497864 -1.4168701 -5.416443 -4.7510986 -7.0 -7.5012817c-1.5835571 -2.7502441 -2.167984 -6.666687 -2.5013123 -9.0c-0.33332825 -2.3333435 -0.5822449 -2.5 0.50131226 -5.0c1.0835571 -2.5 3.8333282 -6.666687 6.0 -10.0c2.1666718 -3.3333435 4.2502136 -6.583557 7.0 -10.0c2.7497864 -3.4164734 7.082245 -6.582245 9.498688 -10.498688c2.4164429 -3.9164734 4.5 -8.749786 5.0 -13.0c0.5 -4.250244 -0.33332825 -8.751099 -2.0 -12.501312c-1.6666718 -3.7502441 -4.9168854 -7.0 -8.0 -10.0c-3.0831146 -3.0 -7.332016 -6.0 -10.498688 -8.0c-3.1666718 -2.0 -5.8346405 -3.4169006 -8.501312 -4.0c-2.6666718 -0.5831299 -5.415573 -1.5822449 -7.4986877 0.50131226c-2.0831146 2.0835266 -3.5831146 7.5 -5.0 12.0c-1.4168854 4.5 -2.9177551 9.833313 -3.5013123 15.0c-0.5835571 5.1666565 -1.0 12.083527 0 16.0c1.0 3.9164429 4.0 4.0822144 6.0 7.4986877c2.0 3.4164429 5.5 8.916443 6.0 13.0c0.5 4.0835266 -1.2502136 8.501312 -3.0 11.501312c-1.7497864 3.0 -4.415573 4.8320007 -7.4986877 6.4986877c-3.0831146 1.6666565 -6.7497864 3.251068 -11.0 3.5012817c-4.2502136 0.25024414 -10.417755 -0.6666565 -14.501312 -1.9999695c-4.083557 -1.3333435 -7.1666718 -3.08313 -10.0 -6.0c-2.8333282 -2.9169006 -5.5 -7.1679993 -7.0 -11.501312c-1.5 -4.3333435 -2.5 -10.248932 -2.0 -14.498688c0.5 -4.2497864 3.2497864 -7.166687 5.0 -11.0c1.7502136 -3.8333435 3.667984 -7.7497864 5.5013123 -12.0c1.8333282 -4.250244 4.415573 -10.251099 5.4986877 -13.501312c1.0831146 -3.2502441 1.6666718 -3.4169006 1.0 -6.0c-0.66667175 -2.58313 -3.1666718 -8.248932 -5.0 -9.498688c-1.8333282 -1.2497864 -3.5 -0.7497864 -6.0 2.0c-2.5 2.7497559 -6.0 8.165344 -9.0 14.498688c-3.0 6.333313 -7.0 16.501312 -9.0 23.501312c-2.0 7.0 -3.2502136 13.332001 -3.0 18.498688c0.25022125 5.1666565 3.9177628 8.334625 4.5013123 12.501312c0.5835571 4.1666565 0.5 8.748901 -1.0 12.498688c-1.5 3.7497559 -4.7497787 7.833313 -8.0 10.0c-3.2502136 2.166626 -6.8346405 2.666626 -11.501312 3.0c-4.666664 0.333313 -12.082237 0.08312988 -16.498688 -1.0c-4.416443 -1.0831299 -7.5831146 -2.5822754 -10.0 -5.4987183c-2.4168854 -2.9164429 -3.751091 -7.5830994 -4.5013123 -11.9999695c-0.7502136 -4.4169006 -0.33332825 -9.751099 0 -14.501312c0.33333588 -4.750244 1.0 -9.083557 2.0 -14.0c1.0 -4.9164734 2.3333359 -9.498688 4.0 -15.498688c1.6666718 -6.0 3.7497864 -15.001312 6.0 -20.501312c2.2502213 -5.5 4.7510986 -9.332031 7.5013123 -12.498688c2.7502213 -3.166687 5.4168854 -4.584442 9.0 -6.5013123c3.5831146 -1.9169006 14.748909 -5.166687 12.498688 -5.0c-2.2502136 0.1666565 -18.916885 4.333313 -26.0 6.0c-7.0831146 1.6666565 -10.665352 3.9164429 -16.498688 4.0c-5.8333282 0.08352661 -12.667976 -1.6653748 -18.501312 -3.4986877c-5.833332 -1.8333435 -10.748905 -3.1679993 -16.498684 -7.5013123c-5.7497826 -4.3333435 -14.249783 -13.498688 -18.000002 -18.498688c-3.7502184 -5.0 -4.3346453 -7.6679993 -4.5013123 -11.501312c-0.16666698 -3.8333435 0.75109386 -7.4986877 3.5013123 -11.498688c2.7502193 -4.0 8.5 -9.584442 13.0 -12.501312c4.500002 -2.9169006 9.500002 -4.166687 14.000002 -5.0c4.5 -0.8333435 9.833332 -1.4169006 13.0 0c3.1666641 1.4168701 5.2502174 5.0013123 5.999996 8.501312c0.7497864 3.5 -1.1679764 8.998688 -1.5013123 12.498688c-0.33333206 3.5 -2.3320198 6.3346252 -0.49868393 8.501312c1.8333321 2.1666565 7.1653557 3.7489014 11.498684 4.4986877c4.333336 0.74975586 9.167984 0.24975586 14.501312 0c5.333336 -0.24978638 12.332024 0.25106812 17.498688 -1.4986877c5.1666718 -1.7497864 15.667984 -0.16668701 13.501312 -9.0z" fill-rule="nonzero"></path><path stroke="#000000" stroke-width="8.0" stroke-linejoin="round" stroke-linecap="butt" d="m119.08185 379.0812c-2.1666641 -8.8333435 -19.33464 -31.0 -26.501312 -44.0c-7.166664 -13.0 -11.832016 -24.08313 -16.498688 -34.0c-4.666664 -9.916901 -8.251091 -17.584442 -11.501312 -25.501312c-3.2502174 -7.9169006 -5.0835495 -13.583557 -8.0 -22.000015c-2.9164467 -8.416443 -6.665352 -19.082245 -9.498684 -28.498688c-2.8333359 -9.416443 -5.66798 -19.583115 -7.501316 -28.0c-1.8333321 -8.416885 -3.2489052 -15.167984 -3.498684 -22.501312c-0.24978256 -7.3333282 0.41688538 -13.6653595 2.0 -21.498688c1.5831146 -7.8333282 4.165352 -16.917755 7.498684 -25.501312c3.3333359 -8.5835495 8.417763 -18.166664 12.501316 -26.0c4.0835495 -7.8333282 7.333332 -13.916885 11.999996 -21.0c4.6666718 -7.0831146 9.083557 -14.415573 16.0 -21.498684c6.9164505 -7.0831146 16.415573 -14.833336 25.498688 -21.0c9.083115 -6.166668 20.249786 -12.500002 29.0 -16.000002c8.750214 -3.5 15.001312 -3.7497807 23.501312 -5.0c8.5 -1.2502184 18.082245 -2.1679792 27.498688 -2.5013123c9.416443 -0.33333302 19.666672 -0.49868774 29.0 0.50131226c9.333328 1.0 19.583115 3.1653538 27.0 5.4986877c7.4168854 2.333334 11.167969 4.834646 17.501312 8.501312c6.3333435 3.666666 15.332031 9.165354 20.498688 13.498686c5.1666565 4.333336 7.334656 8.001316 10.501312 12.501316c3.1666565 4.5 5.665344 8.998684 8.498688 14.498684c2.8333435 5.5 6.1679688 11.834648 8.501312 18.501312c2.3333435 6.6666718 3.7489014 13.6653595 5.4986877 21.498688c1.7497864 7.833336 3.5 17.251099 5.0 25.501312c1.5 8.250214 3.3333435 16.833328 4.0 24.0c0.6666565 7.1666718 0.1666565 12.750214 0 19.0c-0.1666565 6.2497864 -0.3333435 12.1653595 -1.0 18.498688c-0.6666565 6.3333282 -2.2502136 14.917755 -3.0 19.501312c-0.7497864 4.583557 -0.16534424 3.5 -1.4986877 8.0c-1.3333435 4.5 -3.7510986 12.250214 -6.5013123 19.0c-2.7502136 6.7497864 -6.5 13.998703 -10.0 21.498703c-3.5 7.5 -6.7502136 14.667969 -11.0 23.501312c-4.2497864 8.833313 -9.415558 19.998688 -14.498688 29.498688c-5.0830994 9.5 -11.583099 20.001312 -16.0 27.501312c-4.41687 7.5 -8.3346405 13.165344 -10.501312 17.498688c-2.1666718 4.333313 -1.9986877 5.8346252 -2.4986877 8.501312c-0.5 2.6666565 -0.9177551 4.665344 -0.50131226 7.4986877c0.41644287 2.833313 0.5831146 7.0844116 3.0 9.501312c2.4168854 2.41687 7.084442 4.6666565 11.501312 5.0c4.4169006 0.333313 10.6666565 -0.5 15.0 -3.0c4.3333435 -2.5 7.7502136 -8.416473 11.0 -12.0c3.2497864 -3.5835571 5.665344 -6.584442 8.498688 -9.501312c2.8333435 -2.9169006 5.5013123 -5.9169006 8.501312 -8.0c3.0 -2.08313 6.665344 -4.082245 9.498688 -4.4986877c2.8333435 -0.4164734 5.417755 0.5835266 7.5013123 2.0c2.0835571 1.4164429 3.6666565 3.9986877 5.0 6.4986877c1.3333435 2.5 2.2502136 4.917755 3.0 8.501312c0.7497864 3.5835266 1.7489014 8.41687 1.4986877 13.0c-0.25021362 4.5830994 -0.7502136 10.082214 -3.0 14.498688c-2.2497864 4.416443 -5.9986877 8.1666565 -10.498688 12.0c-4.5 3.833313 -11.167969 7.916443 -16.501312 11.0c-5.3333435 3.0835266 -9.915558 6.251068 -15.498688 7.5013123c-5.5830994 1.2502136 -12.916443 0.833313 -18.0 0c-5.083557 -0.8333435 -8.584412 -3.4164734 -12.501312 -5.0c-3.9168854 -1.5835571 -7.1666718 -3.0013123 -11.0 -4.5013123c-3.8333282 -1.5 -11.250214 -5.248932 -12.0 -4.4986877c-0.7497864 0.7502136 5.3346405 6.0835266 7.5013123 9.0c2.1666718 2.9164429 3.832016 5.915558 5.4986877 8.498688c1.6666718 2.5830994 3.0013123 3.6666565 4.5013123 7.0c1.5 3.333313 3.6653442 7.5 4.4986877 13.0c0.8333435 5.5 1.1679688 13.6666565 0.50131226 20.0c-0.6666565 6.333313 -3.0844269 13.583099 -4.5013123 18.0c-1.4168854 4.41687 -1.5835571 4.8346252 -4.0 8.501312c-2.4164429 3.6666565 -6.6653595 9.665344 -10.498688 13.498688c-3.8333282 3.833313 -8.417755 7.4177246 -12.501312 9.501282c-4.083557 2.0835571 -8.416885 2.666687 -12.0 3.0c-3.5831146 0.33337402 -6.7489014 0.41693115 -9.498688 -1.0c-2.7497864 -1.4168701 -5.416443 -4.7510986 -7.0 -7.5012817c-1.5835571 -2.7502441 -2.167984 -6.666687 -2.5013123 -9.0c-0.33332825 -2.3333435 -0.5822449 -2.5 0.50131226 -5.0c1.0835571 -2.5 3.8333282 -6.666687 6.0 -10.0c2.1666718 -3.3333435 4.2502136 -6.583557 7.0 -10.0c2.7497864 -3.4164734 7.082245 -6.582245 9.498688 -10.498688c2.4164429 -3.9164734 4.5 -8.749786 5.0 -13.0c0.5 -4.250244 -0.33332825 -8.751099 -2.0 -12.501312c-1.6666718 -3.7502441 -4.9168854 -7.0 -8.0 -10.0c-3.0831146 -3.0 -7.332016 -6.0 -10.498688 -8.0c-3.1666718 -2.0 -5.8346405 -3.4169006 -8.501312 -4.0c-2.6666718 -0.5831299 -5.415573 -1.5822449 -7.4986877 0.50131226c-2.0831146 2.0835266 -3.5831146 7.5 -5.0 12.0c-1.4168854 4.5 -2.9177551 9.833313 -3.5013123 15.0c-0.5835571 5.1666565 -1.0 12.083527 0 16.0c1.0 3.9164429 4.0 4.0822144 6.0 7.4986877c2.0 3.4164429 5.5 8.916443 6.0 13.0c0.5 4.0835266 -1.2502136 8.501312 -3.0 11.501312c-1.7497864 3.0 -4.415573 4.8320007 -7.4986877 6.4986877c-3.0831146 1.6666565 -6.7497864 3.251068 -11.0 3.5012817c-4.2502136 0.25024414 -10.417755 -0.6666565 -14.501312 -1.9999695c-4.083557 -1.3333435 -7.1666718 -3.08313 -10.0 -6.0c-2.8333282 -2.9169006 -5.5 -7.1679993 -7.0 -11.501312c-1.5 -4.3333435 -2.5 -10.248932 -2.0 -14.498688c0.5 -4.2497864 3.2497864 -7.166687 5.0 -11.0c1.7502136 -3.8333435 3.667984 -7.7497864 5.5013123 -12.0c1.8333282 -4.250244 4.415573 -10.251099 5.4986877 -13.501312c1.0831146 -3.2502441 1.6666718 -3.4169006 1.0 -6.0c-0.66667175 -2.58313 -3.1666718 -8.248932 -5.0 -9.498688c-1.8333282 -1.2497864 -3.5 -0.7497864 -6.0 2.0c-2.5 2.7497559 -6.0 8.165344 -9.0 14.498688c-3.0 6.333313 -7.0 16.501312 -9.0 23.501312c-2.0 7.0 -3.2502136 13.332001 -3.0 18.498688c0.25022125 5.1666565 3.9177628 8.334625 4.5013123 12.501312c0.5835571 4.1666565 0.5 8.748901 -1.0 12.498688c-1.5 3.7497559 -4.7497787 7.833313 -8.0 10.0c-3.2502136 2.166626 -6.8346405 2.666626 -11.501312 3.0c-4.666664 0.333313 -12.082237 0.08312988 -16.498688 -1.0c-4.416443 -1.0831299 -7.5831146 -2.5822754 -10.0 -5.4987183c-2.4168854 -2.9164429 -3.751091 -7.5830994 -4.5013123 -11.9999695c-0.7502136 -4.4169006 -0.33332825 -9.751099 0 -14.501312c0.33333588 -4.750244 1.0 -9.083557 2.0 -14.0c1.0 -4.9164734 2.3333359 -9.498688 4.0 -15.498688c1.6666718 -6.0 3.7497864 -15.001312 6.0 -20.501312c2.2502213 -5.5 4.7510986 -9.332031 7.5013123 -12.498688c2.7502213 -3.166687 5.4168854 -4.584442 9.0 -6.5013123c3.5831146 -1.9169006 14.748909 -5.166687 12.498688 -5.0c-2.2502136 0.1666565 -18.916885 4.333313 -26.0 6.0c-7.0831146 1.6666565 -10.665352 3.9164429 -16.498688 4.0c-5.8333282 0.08352661 -12.667976 -1.6653748 -18.501312 -3.4986877c-5.833332 -1.8333435 -10.748905 -3.1679993 -16.498684 -7.5013123c-5.7497826 -4.3333435 -14.249783 -13.498688 -18.000002 -18.498688c-3.7502184 -5.0 -4.3346453 -7.6679993 -4.5013123 -11.501312c-0.16666698 -3.8333435 0.75109386 -7.4986877 3.5013123 -11.498688c2.7502193 -4.0 8.5 -9.584442 13.0 -12.501312c4.500002 -2.9169006 9.500002 -4.166687 14.000002 -5.0c4.5 -0.8333435 9.833332 -1.4169006 13.0 0c3.1666641 1.4168701 5.2502174 5.0013123 5.999996 8.501312c0.7497864 3.5 -1.1679764 8.998688 -1.5013123 12.498688c-0.33333206 3.5 -2.3320198 6.3346252 -0.49868393 8.501312c1.8333321 2.1666565 7.1653557 3.7489014 11.498684 4.4986877c4.333336 0.74975586 9.167984 0.24975586 14.501312 0c5.333336 -0.24978638 12.332024 0.25106812 17.498688 -1.4986877c5.1666718 -1.7497864 15.667984 -0.16668701 13.501312 -9.0z" fill-rule="nonzero"></path><path fill="#ffffff" d="m67.57988 241.08382l0 0c0 -26.78798 19.69947 -48.503937 44.0 -48.503937l0 0c11.669525 0 22.8611 5.1102295 31.112701 14.206482c8.251602 9.096252 12.887299 21.43341 12.887299 34.297455l0 0c0 26.78798 -19.699463 48.503952 -44.0 48.503952l0 0c-24.30053 0 -44.0 -21.715973 -44.0 -48.503952z" fill-rule="nonzero"></path><path stroke="#ffffff" stroke-width="1.0" stroke-linejoin="round" stroke-linecap="butt" d="m67.57988 241.08382l0 0c0 -26.78798 19.69947 -48.503937 44.0 -48.503937l0 0c11.669525 0 22.8611 5.1102295 31.112701 14.206482c8.251602 9.096252 12.887299 21.43341 12.887299 34.297455l0 0c0 26.78798 -19.699463 48.503952 -44.0 48.503952l0 0c-24.30053 0 -44.0 -21.715973 -44.0 -48.503952z" fill-rule="nonzero"></path><path fill="#ffffff" d="m142.08119 334.0812l99.49869 -14.501312l-63.0 70.0z" fill-rule="nonzero"></path><path stroke="#000000" stroke-width="4.0" stroke-linejoin="round" stroke-linecap="butt" d="m142.08119 334.0812l99.49869 -14.501312l-63.0 70.0z" fill-rule="nonzero"></path><path fill="#000000" fill-opacity="0.0" d="m166.57988 354.33054l42.23622 -7.496063" fill-rule="nonzero"></path><path stroke="#000000" stroke-width="2.0" stroke-linejoin="round" stroke-linecap="butt" d="m166.57988 354.33054l42.23622 -7.496063" fill-rule="nonzero"></path><path fill="#000000" fill-opacity="0.0" d="m171.08119 343.82922l3.4960632 22.015747" fill-rule="nonzero"></path><path stroke="#000000" stroke-width="2.0" stroke-linejoin="round" stroke-linecap="butt" d="m171.08119 343.82922l3.4960632 22.015747" fill-rule="nonzero"></path><path fill="#000000" fill-opacity="0.0" d="m183.82922 342.82922l2.4881897 20.251984" fill-rule="nonzero"></path><path stroke="#000000" stroke-width="2.0" stroke-linejoin="round" stroke-linecap="butt" d="m183.82922 342.82922l2.4881897 20.251984" fill-rule="nonzero"></path><path fill="#000000" fill-opacity="0.0" d="m196.08119 342.33054l1.5118103 14.015747" fill-rule="nonzero"></path><path stroke="#000000" stroke-width="2.0" stroke-linejoin="round" stroke-linecap="butt" d="m196.08119 342.33054l1.5118103 14.015747" fill-rule="nonzero"></path><path fill="#000000" d="m78.24467 232.70587l0 0c0 -12.993912 11.118851 -23.527557 24.834648 -23.527557l0 0c6.5865555 0 12.903343 2.478775 17.560745 6.8910522c4.6573944 4.412277 7.2738953 10.396606 7.2738953 16.636505l0 0c0 12.993912 -11.118851 23.527557 -24.83464 23.527557l0 0c-13.715797 0 -24.834648 -10.533646 -24.834648 -23.527557z" fill-rule="nonzero"></path><path stroke="#000000" stroke-width="1.0" stroke-linejoin="round" stroke-linecap="butt" d="m78.24467 232.70587l0 0c0 -12.993912 11.118851 -23.527557 24.834648 -23.527557l0 0c6.5865555 0 12.903343 2.478775 17.560745 6.8910522c4.6573944 4.412277 7.2738953 10.396606 7.2738953 16.636505l0 0c0 12.993912 -11.118851 23.527557 -24.83464 23.527557l0 0c-13.715797 0 -24.834648 -10.533646 -24.834648 -23.527557z" fill-rule="nonzero"></path><path fill="#ffffff" d="m221.57988 224.70587l0 0c0 -26.787994 19.699478 -48.503937 44.000015 -48.503937l0 0c11.669525 0 22.861084 5.110214 31.11267 14.206467c8.251617 9.096252 12.887329 21.433426 12.887329 34.29747l0 0c0 26.78798 -19.699493 48.503937 -44.0 48.503937l0 0c-24.300537 0 -44.000015 -21.715958 -44.000015 -48.503937z" fill-rule="nonzero"></path><path stroke="#ffffff" stroke-width="1.0" stroke-linejoin="round" stroke-linecap="butt" d="m221.57988 224.70587l0 0c0 -26.787994 19.699478 -48.503937 44.000015 -48.503937l0 0c11.669525 0 22.861084 5.110214 31.11267 14.206467c8.251617 9.096252 12.887329 21.433426 12.887329 34.29747l0 0c0 26.78798 -19.699493 48.503937 -44.0 48.503937l0 0c-24.300537 0 -44.000015 -21.715958 -44.000015 -48.503937z" fill-rule="nonzero"></path><path fill="#000000" d="m251.05045 212.11794l0 0c0 -12.993912 11.118835 -23.527557 24.834656 -23.527557l0 0c6.586548 0 12.90332 2.4787903 17.56073 6.8910675c4.6574097 4.412277 7.2738953 10.396591 7.2738953 16.63649l0 0c0 12.993912 -11.118835 23.527557 -24.834625 23.527557l0 0c-13.71582 0 -24.834656 -10.533646 -24.834656 -23.527557z" fill-rule="nonzero"></path><path stroke="#000000" stroke-width="1.0" stroke-linejoin="round" stroke-linecap="butt" d="m251.05045 212.11794l0 0c0 -12.993912 11.118835 -23.527557 24.834656 -23.527557l0 0c6.586548 0 12.90332 2.4787903 17.56073 6.8910675c4.6574097 4.412277 7.2738953 10.396591 7.2738953 16.63649l0 0c0 12.993912 -11.118835 23.527557 -24.834625 23.527557l0 0c-13.71582 0 -24.834656 -10.533646 -24.834656 -23.527557z" fill-rule="nonzero"></path><path fill="#000000" fill-opacity="0.0" d="m25.917238 166.21768c-0.6476612 8.791428 -5.3967457 35.60498 -3.8859692 52.74858c1.5107765 17.143585 7.1234093 37.804825 12.950626 50.11299c5.827221 12.308197 11.221363 17.14273 22.012688 23.736084c10.791321 6.5933533 28.70649 13.845795 42.735245 15.824036c14.028763 1.9782104 29.567001 1.539856 41.437332 -3.9546814c11.870316 -5.4945374 23.093857 -16.264648 29.784622 -29.012512c6.6907654 -12.747894 8.849197 -33.847946 10.359985 -47.474792c1.5107727 -13.626846 -0.8635559 -26.153992 -1.2953339 -34.286316c-0.4317627 -8.132309 -4.3168793 -11.210678 -1.2953186 -14.507568c3.0215454 -3.2969055 16.187195 -4.3948364 19.424637 -5.2738037" fill-rule="nonzero"></path><path stroke="#0c343d" stroke-width="24.0" stroke-linejoin="round" stroke-linecap="butt" d="m25.917238 166.21768c-0.6476612 8.791428 -5.3967457 35.60498 -3.8859692 52.74858c1.5107765 17.143585 7.1234093 37.804825 12.950626 50.11299c5.827221 12.308197 11.221363 17.14273 22.012688 23.736084c10.791321 6.5933533 28.70649 13.845795 42.735245 15.824036c14.028763 1.9782104 29.567001 1.539856 41.437332 -3.9546814c11.870316 -5.4945374 23.093857 -16.264648 29.784622 -29.012512c6.6907654 -12.747894 8.849197 -33.847946 10.359985 -47.474792c1.5107727 -13.626846 -0.8635559 -26.153992 -1.2953339 -34.286316c-0.4317627 -8.132309 -4.3168793 -11.210678 -1.2953186 -14.507568c3.0215454 -3.2969055 16.187195 -4.3948364 19.424637 -5.2738037" fill-rule="nonzero"></path><path fill="#000000" fill-opacity="0.0" d="m21.081194 178.57988c9.474192 -0.10017395 36.69948 0.15266418 56.845146 -0.6010437c20.145668 -0.75372314 36.58793 -1.5253754 64.02888 -3.9212646c27.440933 -2.3958893 74.9182 -6.5341187 100.61679 -10.454071c25.698593 -3.9199371 35.498703 -7.4033203 53.574814 -13.065613c18.07611 -5.6622925 45.734894 -17.423447 54.881866 -20.908142" fill-rule="nonzero"></path><path stroke="#0c343d" stroke-width="24.0" stroke-linejoin="round" stroke-linecap="butt" d="m21.081194 178.57988c9.474192 -0.10017395 36.69948 0.15266418 56.845146 -0.6010437c20.145668 -0.75372314 36.58793 -1.5253754 64.02888 -3.9212646c27.440933 -2.3958893 74.9182 -6.5341187 100.61679 -10.454071c25.698593 -3.9199371 35.498703 -7.4033203 53.574814 -13.065613c18.07611 -5.6622925 45.734894 -17.423447 54.881866 -20.908142" fill-rule="nonzero"></path><path fill="#000000" fill-opacity="0.0" d="m191.60875 175.52477c2.3958893 0.40856934 10.89064 -5.824585 14.375336 2.4514465c3.4846802 8.276016 3.7016602 31.496933 6.5328064 47.204727c2.8311462 15.707779 4.573929 34.84601 10.454071 47.041992c5.880142 12.195984 14.808838 21.342957 24.826767 26.13385c10.017944 4.7908936 25.044617 5.442688 35.280853 2.6115417c10.236206 -2.8311462 18.513977 -10.8871155 26.136475 -19.59842c7.622467 -8.711273 13.936127 -18.703857 19.59842 -32.66928c5.6622925 -13.965454 11.9973755 -32.93657 14.375336 -51.123367c2.3779602 -18.186783 -0.08969116 -48.331146 -0.10760498 -57.997375" fill-rule="nonzero"></path><path stroke="#0c343d" stroke-width="24.0" stroke-linejoin="round" stroke-linecap="butt" d="m191.60875 175.52477c2.3958893 0.40856934 10.89064 -5.824585 14.375336 2.4514465c3.4846802 8.276016 3.7016602 31.496933 6.5328064 47.204727c2.8311462 15.707779 4.573929 34.84601 10.454071 47.041992c5.880142 12.195984 14.808838 21.342957 24.826767 26.13385c10.017944 4.7908936 25.044617 5.442688 35.280853 2.6115417c10.236206 -2.8311462 18.513977 -10.8871155 26.136475 -19.59842c7.622467 -8.711273 13.936127 -18.703857 19.59842 -32.66928c5.6622925 -13.965454 11.9973755 -32.93657 14.375336 -51.123367c2.3779602 -18.186783 -0.08969116 -48.331146 -0.10760498 -57.997375" fill-rule="nonzero"></path></g></svg>

