<?xml version="1.0" ?><!DOCTYPE svg  PUBLIC '-//W3C//DTD SVG 1.1//EN'  'http://www.w3.org/Graphics/SVG/1.1/DTD/svg11.dtd'><svg enable-background="new 0 0 48 48" height="48px" id="Layer_1" version="1.1" viewBox="0 0 48 48" width="48px" xml:space="preserve" xmlns="http://www.w3.org/2000/svg" xmlns:xlink="http://www.w3.org/1999/xlink"><path clip-rule="evenodd" d="M44.929,14.391c-0.046,0.099-0.102,0.194-0.183,0.276L16.84,42.572  c-0.109,0.188-0.26,0.352-0.475,0.434l-13.852,3.88c-0.029,0.014-0.062,0.016-0.094,0.026l-0.047,0.014  c-0.008,0.003-0.017,0.001-0.024,0.004c-0.094,0.025-0.187,0.046-0.286,0.045c-0.098,0.003-0.189-0.015-0.282-0.041  c-0.021-0.006-0.04-0.002-0.061-0.009c-0.008-0.003-0.013-0.01-0.021-0.013c-0.088-0.033-0.164-0.083-0.24-0.141  c-0.039-0.028-0.08-0.053-0.113-0.086s-0.058-0.074-0.086-0.113c-0.058-0.075-0.107-0.152-0.141-0.24  c-0.004-0.008-0.01-0.013-0.013-0.021c-0.007-0.02-0.003-0.04-0.009-0.061c-0.025-0.092-0.043-0.184-0.041-0.281  c0-0.1,0.02-0.193,0.045-0.287c0.004-0.008,0.001-0.016,0.004-0.023l0.014-0.049c0.011-0.03,0.013-0.063,0.026-0.093l3.88-13.852  c0.082-0.216,0.246-0.364,0.434-0.475l27.479-27.48c0.04-0.045,0.087-0.083,0.128-0.127l0.299-0.299  c0.015-0.015,0.034-0.02,0.05-0.034C34.858,1.87,36.796,1,38.953,1C43.397,1,47,4.603,47,9.047  C47,11.108,46.205,12.969,44.929,14.391z M41.15,15.5l-3.619-3.619L13.891,35.522c0.004,0.008,0.014,0.011,0.018,0.019l2.373,4.827  L41.15,15.5z M3.559,44.473l2.785-0.779l-2.006-2.005L3.559,44.473z M4.943,39.53l3.558,3.559l6.12-1.715  c0,0-2.586-5.372-2.59-5.374l-5.374-2.59L4.943,39.53z M12.49,34.124c0.008,0.004,0.011,0.013,0.019,0.018L36.15,10.5l-3.619-3.619  L7.663,31.749L12.49,34.124z M38.922,3c-1.782,0-3.372,0.776-4.489,1.994l-0.007-0.007L33.912,5.5l8.619,8.619l0.527-0.528  l-0.006-0.006c1.209-1.116,1.979-2.701,1.979-4.476C45.031,5.735,42.296,3,38.922,3z" fill-rule="evenodd"/></svg>