<svg xmlns="http://www.w3.org/2000/svg" width="272.833" height="351.571"><path d="M19.997 0L0 97.532l57.353 54.113L20.09 218.07l75.823 133.5h82.95l76.148-133.5-37.586-66.425 55.41-54.113L254.593 0l-77.997 103.878h-78.09z" fill="#6ccb94" fill-opacity=".996"/><path d="M20.09 218.07l37.262-66.425 80.028 66.426z" fill="#5dbd85" fill-opacity=".996"/><path d="M57.353 151.646l80.028 66.426L98.505 103.88z" fill="#64c48c" fill-opacity=".996"/><path d="M255.01 218.07l-37.587-66.425-80.04 66.426z" fill="#6ecc95" fill-opacity=".996"/><path d="M95.912 351.57h82.95l-41.48-133.5z" fill="#5ebe86" fill-opacity=".996"/><path d="M217.423 151.646l-80.04 66.426 39.213-114.192z" fill="#76d29c" fill-opacity=".996"/><path d="M254.593 0l18.238 97.533-55.408 54.113-40.828-47.767z" fill="#74d09b" fill-opacity=".996"/><path d="M137.38 218.07l41.483 133.5 76.147-133.5z" fill="#64c48c" fill-opacity=".996"/><path d="M137.38 218.07L95.9 351.57l-75.81-133.5z" fill="#58b880" fill-opacity=".996"/><path d="M19.997 0L0 97.534l57.353 54.113 41.152-47.767z" fill="#5fbf87" fill-opacity=".996"/><path d="M137.38 218.07l39.215-114.19h-78.09z" fill="#6ecc95" fill-opacity=".996"/></svg>
