<svg xmlns="http://www.w3.org/2000/svg" width="12.037mm" height="11.741mm" viewBox="0 0 42.651 41.60142"><path fill="#1b1817" fill-rule="evenodd" d="M21.33 0C9.554 0 .004 9.547.004 21.325c0 9.422 6.11 17.416 14.584 20.236 1.066.2 1.457-.46 1.457-1.024 0-.51-.02-2.188-.027-3.97-5.933 1.29-7.185-2.516-7.185-2.516-.97-2.466-2.368-3.12-2.368-3.12-1.936-1.325.145-1.297.145-1.297 2.14.15 3.27 2.198 3.27 2.198 1.9 3.26 4.988 2.32 6.205 1.774.19-1.378.744-2.32 1.354-2.852-4.737-.538-9.716-2.367-9.716-10.538 0-2.328.833-4.23 2.197-5.724-.22-.537-.95-2.706.207-5.644 0 0 1.79-.573 5.866 2.186 1.7-.473 3.525-.71 5.338-.718 1.812.008 3.638.245 5.342.718 4.07-2.76 5.86-2.186 5.86-2.186 1.16 2.937.43 5.106.208 5.644 1.367 1.493 2.195 3.396 2.195 5.724 0 8.19-4.987 9.994-9.736 10.522.765.662 1.446 1.96 1.446 3.95 0 2.852-.026 5.15-.026 5.85 0 .57.384 1.233 1.465 1.024 8.467-2.823 14.57-10.814 14.57-20.233C42.655 9.551 33.107.003 21.33.003"/></svg>
