<svg xmlns="http://www.w3.org/2000/svg" width="960" height="930" version="1">
  <path fill="#54463e" d="M127 430c8-2-20-5-10-8 0 5 22-16 43-37 22-20 43-41 44-37l-3 2c-11 7-14 20-15 44 0 13 1 38 4 61 5 40 10 45 16 47l14 4c11 1-61 103-51 101v3c-4 8-9 12-9 12 16 47-13 73-13 73 11 49-33 61-33 61l-3 14c8 14 23 10 15 70-7 61-48 71-48 71 3-9-14-32-14-32C6 765 94 768 94 768v-15s-25-30-22-51c2-20 13-38 13-38s-16-29-13-49 11-32 11-32-12-26-9-49 17-39 17-39 25-19 27-42c2-10 5-17 9-23"/>
  <path fill="#2a2c30" d="M224 284l-35 56c-5 4-8 9-11 15l-40 48 19-11-11 17-23 7-6 2-3 4c-5 9-9 19-10 29-2 14-17 29-23 33l-1 1v1c-1 0-17 19-20 46-3 19 3 40 6 50-3 7-7 17-9 31-2 18 6 39 12 51-4 8-10 21-12 36-2 19 11 42 20 54-21 5-40 24-42 65 0 15 7 30 14 45s15 31 15 47l-1 19 19-5c2-1 50-13 59-83 5-44-9-60-16-69h-1 1l1-6c19-9 42-30 37-68 8-11 23-36 13-74l6-8 3-4-1-6-1-1 22-37c29-48 34-59 29-69-2-5-7-8-12-9l-10-2a429 429 0 0 1-9-115l8-13 8-4v-6l46-55-51 29 10-41m-35 84c-2 7-2 15-3 26 0 13 1 38 4 61 5 40 10 45 16 47l14 4c11 1-60 101-51 101v3c-4 8-9 12-9 12 16 47-13 73-13 73 11 49-33 61-33 61l-3 14c-9 16 23 10 15 70-7 61-48 71-48 71 1-35-29-66-28-92 1-47 29-52 40-52l4 1v-15s-25-30-22-51c2-20 13-38 13-38s-16-29-13-49 11-32 11-32-12-25-9-49c3-23 17-39 17-39s25-19 27-42c2-10 5-17 9-23a486 486 0 0 0 27-7c2 0 21-33 35-55m12-19l-12 19c2-9 6-14 12-18v-1m2-1h1l-3 1 2-1"/>
  <path fill="#2a2c30" d="M107 763c-3 0-5-1-6-4-2-3-3-5 2-10l24-20-12 28-8 6m-34 46c-5-21-4-25-2-31 5-12 10-15 11-15 3-2 8-2 10 2 3 3 2 8-1 10-1 0-6 3-11 11-2 3-4 7-7 23"/>
  <path fill="#f2f19b" d="M77 754l50 11-4 12-48-12 2-11"/>
  <path fill="#2a2c30" d="M77 747l-4 1c-2 1-3 3-3 5l-2 12c0 3 2 7 6 8l48 12h1c4 0 7-2 8-6l3-12a7 7 0 0 0-6-9l-49-11h-2zm0 7l50 11-4 12-48-12 2-11"/>
  <path fill="#54463e" d="M873 430l-26-8c0 5-22-16-43-37-22-20-43-41-44-37l3 2c11 7 14 20 14 44 1 13 0 38-3 61-5 40-10 45-17 47-3 2-8 3-13 4-11 1 61 103 51 101v3c4 8 9 12 9 12-16 47 13 73 13 73a49 49 0 0 0 33 61l3 14c-8 14-23 10-15 70 7 61 48 71 48 71-3-9 14-32 14-32 58-114-30-111-30-111v-15s25-30 22-51c-2-20-13-38-13-38s15-29 13-49c-3-20-11-32-11-32s12-26 9-49-17-39-17-39 12-19 9-42c-1-10-5-17-9-23"/>
  <path fill="#2a2c30" d="M761 333c-8 0-15 6-15 14l-1 10 9 4 1 1c5 3 7 9 8 33a428 428 0 0 1-11 94l-10 3c-5 0-10 3-12 8-5 11 0 21 29 69l22 37-1 2-1 5 3 4 6 9c-10 37 5 63 13 74-5 38 18 59 37 67l1 6h1l-1 1c-7 8-21 24-16 68 9 70 57 83 59 83l19 5-1-19c0-16 8-31 15-47 7-15 14-30 14-45-1-41-21-59-42-64 9-13 22-35 20-55-2-15-7-28-11-36 5-11 13-33 11-51-2-14-6-24-10-31a95 95 0 0 0-7-88c4-10 9-25 7-43-2-10-5-20-11-29l-3-4-6-2-26-7-1-1-36-33c-40-38-45-42-53-42m0 15c7 0 79 75 85 75h1l26 7c4 6 8 13 9 23 3 23-9 42-9 42s14 16 17 39c3 24-9 49-9 49s8 12 11 32-13 50-13 50 11 17 13 37c3 21-22 51-22 51v15l4-1c11 0 39 5 40 52 1 26-29 57-28 92 0 0-41-10-48-71-8-60 24-54 15-70l-3-14s-44-12-33-61c0 0-29-26-13-73 0 0-5-4-9-12v-3c9 0-62-100-51-101l14-4c6-2 11-7 16-47 3-23 4-48 4-61-1-24-4-37-15-44l-3-2h1"/>
  <path fill="#2a2c30" d="M808 707c-1 0-3 0-5-2s-3-7 0-10l18-13-6 23c-1 2-5 2-7 2m80-33c-2 0-7-8-9-10l-12-26 27 24a7 7 0 0 1-6 12m-811 0l-4-2c-3-2-4-7-2-10l27-24-13 26c-1 2-6 10-8 10"/>
  <path fill="#b08b6e" d="M124 413v181l15 54 49 27 30 72 25 36 508-34 39-94 22-64 32-172-362-39-358 33"/>
  <path fill="#b08b6e" d="M484 663l90 14h11l25 9 135 47 9 8-51 73-72 66-86 33-76 5-64-11-81-39-61-53-29-44 18-13 143-74 89-21"/>
  <path fill="#967663" d="M713 789S596 895 489 895c-108 0-223-93-223-93s63 116 231 116 216-129 216-129"/>
  <path fill="#b08b6e" d="M171 658l-24-17v-1l-2-3h-1l-11-96c-9 5-19 10-22 13-2 1-4 6-1 29 2 17 8 44 14 63v1c12 9 30 19 48 15l2 6-2-6-1-4m684-119l-18-11-13 91c-1 2-1 4-3 5l-7 5-11 8-2 5c18 5 36-8 46-18a275 275 0 0 0 10-55c2-23 0-28-2-30"/>
  <path fill="#967663" d="M177 645l11 34s88 37 166 14c77-22 104-82 113-116 10-34-18 15-18 15s-98 61-156 61-116-8-116-8m616 0l-11 34s-88 37-165 14c-78-22-105-82-114-116s18 15 18 15 98 61 156 61 116-8 116-8"/>
  <path fill="#b08b6e" d="M801 642l-3 13c11 2 28 4 37 3 3-4 8-18 12-34-10 10-28 23-46 18m-627 26l-2-6c-18 3-36-7-48-16 4 13 7 23 11 26 9 1 29-1 39-4"/>
  <path fill="#967663" d="M779 682s64-34 77-69c14-35 4-61 4-61s-11 64-69 93l-12 37m-590-4s-64-34-78-69c-13-35-3-61-3-61s11 64 69 93l12 37"/>
  <path fill="#2a2c30" d="M793 676c10 2 24 2 35 2l14-2c7-2 12-6 22-45 6-23 10-47 11-60 2-24 1-37-9-46-5-4-19-11-27-15l-3 18 19 11c2 2 4 7 2 31-2 29-15 79-22 87-8 2-26 0-36-2l3-19-18 13-3 14a426 426 0 0 1-32 77v1s7 1 20-5c14-29 22-51 24-60M230 785l17-5s-37-61-45-81l-9-21-1-6-8-18-20-14 9 22 1 5c-10 3-30 6-39 5a388 388 0 0 1-25-89c-3-23-1-28 2-30l21-12-2-19c-5 3-25 13-31 18-9 8-10 21-7 45 1 12 6 36 12 58 10 37 18 44 25 45l12 1c12 0 28-2 38-5 12 37 29 71 50 101-1 0 0 0 0 0"/>
  <path fill="#96989a" d="M123 435l4 14 29-21-33 7"/>
  <path fill="#967663" d="M533 470l-9-5c-1 0-16-8-37-7h-2c-22-1-37 7-37 7l-9 5-9-4c-83-31-147-35-195-37l-85 15-6 2c2 74 17 123 46 151 26 24 63 34 126 34 98 0 111-93 112-97l2-11 10-5s25-11 46-11 46 11 46 11l11 5 1 11c1 4 15 97 112 97 63 0 101-10 126-34 28-27 43-75 46-146l-118-28c-44 5-100 17-168 43l-9 4"/>
  <path fill="#54463e" d="M932 524s-175-54-207-144l152 18s-12 63 55 126M301 341l-96 39s6 14 7 37L97 431s-3 63-70 126c0 0 143-34 215-122-7 37-27 57-50 81 0 0 112-34 182-137-5 16-18 66-29 85 0 0 382-95 390-190l-437 57 3 10"/>
  <path fill="#2a2c30" d="M737 389c30 58 123 100 170 118-37-45-39-86-38-103zm223 151l-30-9c-7-2-178-57-212-149l-4-11 172 21-2 7c0 1-9 61 53 120l23 21M104 437c-3 16-12 58-51 103 17-6 38-15 61-26 44-22 102-57 133-104l19-30-6 35c-5 31-25 62-43 84 37-17 104-55 151-124l23-35-10 41c-9 32-16 56-23 72 29-8 94-28 158-55 125-51 164-90 173-115l-381 55v1l2 6-96 39c2 7 5 18 6 33v6l-116 14M0 573l22-21c64-60 68-121 68-122v-6l6-1 109-12c-2-18-7-28-7-28l-3-7 7-3 90-36-1-2-4-9 10-2 409-59v9c-4 43-66 89-185 137-87 36-174 60-175 60l-17 5 9-16c4-6 10-19 18-47a378 378 0 0 1-162 110l-27 8 20-20c10-11 30-34 44-60-72 73-196 111-202 113l-29 9"/>
  <path fill="#f2f19b" d="M894 327a201 201 0 0 0-2-16l-28-19a358 358 0 0 0-68-32 700 700 0 0 0-36-13 458 458 0 0 1 62 15A368 368 0 0 0 483 18c-148 0-283 96-340 244a494 494 0 0 1 62-15l-18 6-18 7-35 15a356 356 0 0 0-61 36l-1 7-1 9a225 225 0 0 0 2 57 264 264 0 0 0 17 63l1 4 1 2 3 1 6 3 11 5v-1l-10-39 56-13-8-1a1874 1874 0 0 1 520-20c69 7 167 11 163 13l-23 7-3 1 62 13-10 38 6-3 5-3 3-1 1-2 2-4a552 552 0 0 0 9-26 268 268 0 0 0 10-75l-1-19"/>
  <path fill="#ebdc8c" d="M630 333l-29-2h-1c11-24 14-49 14-58l24-19a319 319 0 0 1-8 76 7 7 0 0 0 0 3m-295 0a7 7 0 0 0 0-3 258 258 0 0 1-8-76l24 19c0 9 3 34 14 58a1198 1198 0 0 0-30 2"/>
  <path fill="#2a2c30" d="M670 388a2077 2077 0 0 0-190-11 1679 1679 0 0 0-189 11 983 983 0 0 0-137 21l4 1 86-1h1l19-2 23-1 5-1h12l29-2 40-1 60-2 47-1 33 1h-1 1l92 2 63 3 18 1 1 1 20 1 100 1 3-1c8-2-72-13-140-20m197 375l-4-1-16-33 24 20c3 2 4 7 2 10-1 3-3 4-6 4"/>
  <path fill="#ebdc8c" d="M216 351l-1-23c0-14 1-32 4-52l96-27c-1 14-1 43 5 72-4-8-8-19-11-32-2-12-11-15-20-15-8 0-17 2-24 4-16 4-36 9-39 17-6 16-9 56-9 56h-1m533-3c-1-9-4-40-9-53-3-8-23-13-39-17-7-1-16-4-24-4-9 0-18 3-20 15-4 15-8 27-13 36 7-31 7-62 6-76l27 7 69 20a339 339 0 0 1 3 72m-162-18l-3-1-101-3h-3l-102 3v-1c-14-27-15-58-15-58 0-2-1-4-3-5l-10-8c-7-67 5-129 13-163l3-8s4 212 53 212h129c47 0 52-188 53-210 8 32 21 97 14 168v1l-10 8c-2 1-3 3-3 5a160 160 0 0 1-15 58v2m-411 38c13-11 22-37 27-57v17l1 29-3 1-25 10"/>
  <path fill="#2a2c30" d="M591 889c-35 14-68 20-94 22-25 1-51-2-76-8h-1l-34 5a291 291 0 0 0 256-26c-1 0-30 7-51 7"/>
  <path fill="#2a2c30" d="M247 780s70 99 173 123l-13 5-21-1s-81-23-157-122l1-14 17 9m502-432v6a631 631 0 0 0-105-19h-2v-2l2-8c7-31 7-62 6-76l96 27c5 34 4 61 3 72m-119-18v3l-30-2c11-24 14-49 14-58l24-19c0 17 0 47-8 76m-295 3v-3c-8-29-8-59-8-76l24 19c0 9 3 34 14 58l-30 2m-14 2a812 812 0 0 0-105 19v-3c-1-10-3-38 3-75l96-27c-1 14-1 43 5 72l3 12v2h-2m473 36v-1l-3-1a242 242 0 0 0-30-11v-1c0-1 2-19 1-46-1-12-2-26-5-41 0-3-2-5-4-5l-14-4c-3-106-46-155-47-157 38 63 38 137 37 154l-84-24h-3l-1 1h-2v1l-6 5v-35l-1-4c-2-37-11-89-37-135l6 21c8 32 21 97 14 168v1l-10 8c-2 1-3 3-3 5 0 0-1 31-15 58v2a1595 1595 0 0 0-209-2c-14-27-15-58-15-58 0-2-1-4-3-5l-10-8c-7-67 5-130 13-163l8-27c-38 66-40 146-39 174l-6-5v-1h-1l-1-1h-4l-85 24c0-17-1-92 38-154-1 1-44 51-47 157l-14 4c-2 0-4 2-5 5a366 366 0 0 0-3 87l-3 1-28 11-2 1-4 2-2 1-2 1a167 167 0 0 1 39-10 677 677 0 0 1 120-14 2685 2685 0 0 1 440 14 343 343 0 0 1 38 10l-2-2-4-1"/>
  <path fill="#2a2c30" d="M452 269h19V128h-46v23h-23v-45h164v45h-22v-23h-47v141h20v26h-65v-26zm37 44h45v-61h-20V145h13v23h56V89H385v79h56v-23h13v107h-19v61h54"/>
  <path fill="#2a2c30" d="M107 460l-6-3-6-3-3-1-1-1-2-4-3-8v-1l-6-18-7-37-2-12-1-25 1-9v-10l1-10 1-6c9-7 18-14 28-19a373 373 0 0 1 68-32l18-7 2-1 16-6a458 458 0 0 0-62 15A368 368 0 0 1 483 18a375 375 0 0 1 339 244 494 494 0 0 0-62-15l16 6h2a700 700 0 0 1 86 39c10 6 20 12 28 19l1 7 1 9a225 225 0 0 1-2 57 264 264 0 0 1-16 63l-2 4-1 2-3 1-6 3-6 3-12 48 6-25 8-3 12-5 6-3 7-3 2-1 1-2 2-3 1-2 2-5 5-10a211 211 0 0 0 14-60 245 245 0 0 0-5-81l-1-3-2-1c-10-9-22-15-34-21l-29-12c-28-77-76-145-138-193a362 362 0 0 0-441 0 420 420 0 0 0-138 193 328 328 0 0 0-64 33l-1 1-1 3a115 115 0 0 0-4 20 254 254 0 0 0 13 121l4 10 3 5 1 2 2 3 1 2 2 1 6 3 6 3 4 1 15-14-4-2"/>
  <path fill="#cd2445" d="M452 269h19V128h-46v23h-23v-45h164v45h-22v-23h-47v141h20v26h-65v-26"/>
  <path fill="#2a2c30" d="M642 882s90-57 127-146l-11-4-9 8s-65 110-158 149l-1 6 52-13m-96-217s-21 20-56 25c-34 4-61-17-61-17 1 4 2 12 10 19 2 2 17 14 48 14 23 0 40-13 43-15h1c15-11 15-26 15-26"/>
  <path fill="#929191" d="M486 507c21 0 46 11 46 11l11 5 1 11c1 4 15 97 112 97 63 0 101-10 126-34 29-28 44-78 46-153-11-5-31-12-61-16-44-5-119-2-225 38l-9 4-9-5c-1 0-16-8-37-7h-2c-22-1-37 7-37 7l-9 5-9-4a479 479 0 0 0-225-38c-30 4-50 11-61 16 2 75 17 125 46 153 26 24 63 34 126 34 98 0 111-93 112-97l2-11 10-5s25-11 46-11zm170 168c-99 0-141-73-153-121-5-2-12-3-17-3l-17 3c-12 48-54 121-153 121-129 0-215-42-215-244v-12l9-6c4-3 108-72 327 9 10-3 28-8 49-7 21-1 39 4 49 7 219-81 323-12 327-9l9 6v12c0 202-86 244-215 244"/>
  <path fill="#2a2c30" d="M887 809c5-21 4-25 2-31-5-12-11-15-11-15-3-2-8-2-10 2-3 3-2 8 1 10 0 0 5 3 11 11 2 3 4 7 7 23"/>
  <path fill="#fff" d="M332 500a15 15 0 1 1 0 29 15 15 0 0 1 0-29m310 0a15 15 0 1 1 0 29 15 15 0 0 1 0-29"/>
  <path fill="#2a2c30" d="M486 500c23 0 49 11 49 11l14 7 2 15c1 4 14 91 105 91 61 0 97-10 121-32 27-26 41-72 43-141-34-11-113-36-264 22l-12 5-3-1s-29-11-56-11-54 11-54 11l-3 1-12-5c-151-58-230-33-264-22 2 69 16 115 43 141 24 22 60 32 121 32 91 0 104-87 105-91l2-15 14-7s26-11 49-11zm170 138c-103 0-119-98-119-103l-1-7-7-4s-24-10-43-10-43 10-43 10l-7 4-1 7c0 5-15 103-118 103-66 0-105-11-132-36-30-29-46-80-48-156v-6l5-1 5-2c35-11 118-38 275 23l6 2c8-3 32-11 57-11 26 0 51 8 59 11l7-2c157-61 239-34 274-23l5 2 5 1v6c-2 76-17 127-48 156-27 25-66 36-131 36zm-170-95c6 0 14 2 19 4l4 1 1 4c5 20 34 115 146 115 72 0 119-13 151-44 38-36 57-99 57-192v-9l-7-4h-1c-19-11-121-63-319 12l-2 1-3-1c-10-4-26-8-46-8s-36 4-46 8l-3 1-2-1c-88-33-167-46-235-38-46 6-74 20-84 26h-1l-7 4v9c0 93 19 156 57 192 32 31 79 44 151 44 112 0 141-95 146-115l1-4 4-1c5-2 13-4 19-4zm170 139c-93 0-143-63-159-122l-11-2-11 2c-16 59-66 122-159 122-76 0-126-15-161-48-42-39-62-106-62-203v-18l16-8c13-8 42-22 90-27 69-9 150 4 238 37 11-4 28-8 49-8s38 4 49 8c88-33 169-46 238-37 48 5 77 19 90 27h1l15 8v18c0 97-20 164-62 203-35 33-85 48-161 48"/>
  <path fill="#2a2c30" d="M687 487c0 1-4 12-21 11 1 2 1-3-8-9 12 1 21 2 29-2"/>
  <path fill="#2a2c30" d="M692 494s-4 12-21 11c1 2 1-4-8-9 12 1 21 2 29-2"/>
  <path fill="#2a2c30" d="M696 502c-1 1-4 12-21 11 1 2 1-3-8-9 12 1 21 2 29-2"/>
  <path fill="#2a2c30" d="M632 513a10 10 0 1 1 20 3 10 10 0 0 1-20-3zm8 60l5 1c21 2 29-9 29-9 3-4 5-10 6-19 3-31-11-59-31-61-20-3-37 21-41 52s13 34 32 36m-353-87c0 1 4 12 21 12-1 1-1-4 8-9-12 1-21 2-29-3"/>
  <path fill="#2a2c30" d="M282 493c0 1 3 12 21 12-1 1-1-4 8-10-12 1-21 2-29-2"/>
  <path fill="#2a2c30" d="M278 501c0 1 3 13 21 12-1 2-1-4 8-9-12 1-21 2-29-3"/>
  <path fill="#2a2c30" d="M333 525a10 10 0 1 1-3-21 10 10 0 0 1 3 21zm32 13c-3-31-20-55-40-53s-34 30-32 61c1 9 3 15 6 19 0 0 8 11 29 9h4c20-3 37-5 33-36"/>
  <path fill="#3b393d" d="M560 786s-25-7-33-7c-7 0-42 10-42 10l-42-17-33 14 41 14h27l7 4 35-4c11-2 41-14 41-14l25-15"/>
  <path fill="#fff" d="M481 789s0 5 4 5 44 0 72-8l-22-13-53 2-1 14"/>
  <path fill="#fff" d="M487 789s0 5-3 5c-4 0-45 0-72-8l22-13 53 2v14"/>
  <path fill="#7e5651" d="M560 786s-30 13-41 14l-34 4-36-4c-11-1-40-14-40-14h-1 1s25-7 32-7c8 0 43 10 43 10h1s34-10 42-10 33 7 33 7zm33-18s-21 9-32-2-28-21-42-21c-12 0-28 9-33 12-5-3-24-12-36-12-14 0-31 10-43 21-11 11-32 2-32 2l37 39s19 21 29 27c11 5 35 10 42 10h2c7 0 31-5 42-10 11-6 29-27 29-27l37-39"/>
  <path fill="#2a2c30" d="M421 787c9 4 23 9 29 10 10 2 32 3 35 3 2 0 24-1 34-3 6-1 20-6 29-10l-21-4c-7 0-39 6-41 6h-3l-42-6-20 4zm64 21h-1l-35-4c-12-2-41-14-42-15l-18-10 19 3c5-1 26-6 33-6l43 6 43-6c8 0 28 5 33 6l19-3-17 10c-2 1-31 13-42 15l-35 4"/>
  <path fill="#f2f19b" d="M887 754l-50 11 3 12 48-12-1-11"/>
  <path fill="#2a2c30" d="M887 747h-2l-50 11-4 4c-1 1-2 3-1 5l3 12c1 4 4 6 7 6l2-1 48-12c4-1 6-4 6-8l-2-11c0-2-1-4-3-5l-4-1zm0 7l1 11-48 12-3-12 50-11"/>
  <path fill="#ebdc8c" d="M791 369a239 239 0 0 0-30-11v-1c0-1 3-19 1-46 5 21 15 48 29 58"/>
  <path fill="#b6aa71" d="M792 369l-28-10a239 239 0 0 1 28 10"/>
  <path fill="#2a2c30" d="M552 804c-5 5-19 21-27 25-10 5-34 9-40 9h-1c-6 0-30-4-40-9-8-5-22-20-27-26l-25-26c7 0 14-1 20-7 10-10 26-20 38-20 8 0 23 6 34 12l2 2 3-2c9-6 22-12 30-12 12 0 28 10 38 20 6 6 13 7 20 7zm39-41s-18 8-26 0c-12-12-30-24-46-24-12 0-26 7-33 12-9-4-25-12-36-12-16 0-35 12-46 24-8 8-26 0-26 0l-11-3c0 2 41 51 41 51 1 1 19 21 31 27 12 7 37 11 45 11h1c7 0 33-4 45-11 11-6 30-26 30-27l42-51-11 3"/>
</svg>
