<svg xmlns="http://www.w3.org/2000/svg" width="109.71" height="72" viewBox="0 0 109.71 72"><path fill="#E42528" d="M89.14 48c0 4.55-2.4 6.77-6.85 6.85H27.4c-4.46-.08-6.86-2.3-6.86-6.85s2.4-6.77 6.86-6.85h54.9c4.45.08 6.84 2.3 6.84 6.85m-6.86 10.3H27.43c-4.46.07-6.86 2.3-6.86 6.84s2.4 6.78 6.86 6.86H82.3c4.45-.08 6.84-2.3 6.84-6.86s-2.4-6.77-6.86-6.85m17.15-37.77c-4.46.07-6.86 2.3-6.86 6.85v37.7c0 4.56 2.4 6.8 6.86 6.87 6.7-.26 10.28-6.94 10.28-20.58V34.3c.07-9.1-3.53-13.56-10.22-13.72m-89.14 0C3.6 20.74 0 25.18 0 34.28v17.15C0 65.07 3.6 71.75 10.3 72c4.45-.08 6.84-2.3 6.84-6.86v-37.7c0-4.56-2.4-6.8-6.85-6.87m89.1-3.43C99.4 5.78 93.4.2 82.3 0H27.43C16.27.2 10.3 5.8 10.3 17.15c6.68.13 10.27 3.47 10.27 10.3 0 6.8 3.6 10.15 10.3 10.27h48c6.68-.1 10.27-3.45 10.27-10.27 0-6.82 3.6-10.16 10.3-10.28z"/></svg>
