<svg xmlns="http://www.w3.org/2000/svg" width="10.82mm" height="11.74mm" viewBox="0 0 38.34 41.597"><path d="M38.34 41.6V.003H0V41.6z"/><path fill="red" d="M34.81 18.03v20.2H3.533V26.5h6.108c.048.002.086.02.094.074.19 6.41 4.095 9.79 8.462 10.026 6.323.34 8.925-4.334 9.123-8.71 0-4.38-3.408-6.686-7.495-8.578-2.45-1.3-4.91-3.152-4.848-5.627.063-2.5 1.89-5.43 5.174-5.43 3.285 0 5.098 3 5.15 7.1-.017 1.552 1.14 2.64 3.236 2.646 2.103 0 4.556.03 6.276.03z"/><path fill="#ff0" d="M3.53 22.92V3.372h31.277v11.077h-5.998c-.175-.036-.175-.086-.206-.222C28.371 7.927 24.318 5 20.146 5c-4.65 0-8.367 2.648-8.775 8.27-.278 3.824 3.057 7.126 7.144 9.018 2.45 1.3 5.273 3.11 5.217 5.606-.062 2.784-1.396 5.125-5.218 5.125-2.8 0-5.294-2.184-5.294-6.516 0-1.52-.958-3.586-3.21-3.586z"/></svg>
