<svg xmlns="http://www.w3.org/2000/svg" width="11.783mm" height="11.74mm" viewBox="0 0 41.75 41.598"><path fill="#cc2b29" d="M3.17 0h35.407c1.755 0 3.17 1.304 3.17 2.923v35.752c0 1.62-1.415 2.923-3.17 2.923H3.167c-1.757 0-3.17-1.304-3.17-2.923V2.923C-.003 1.303 1.41 0 3.167 0z"/><path fill="#fff" d="M6.27 4.49v11.45h8.245v-3.366h1.9v15.77h-2.78v8.762h14.41v-8.76h-2.766V12.573h1.913v3.365h8.28V4.49H6.269zm2.52 2.374h24.162v6.723h-3.4v-3.33h-6.793v20.678h2.98v3.798h-9.738v-3.798h2.904V10.257h-6.716v3.33h-3.4V6.864z"/></svg>
