<svg xmlns="http://www.w3.org/2000/svg" width="12.98mm" height="10.549mm" viewBox="0 0 45.993 37.38"><path fill="#6babe1" d="M14.465 37.38c-5.33 0-10.29-1.562-14.465-4.24.738.088 1.49.133 2.25.133 4.422 0 8.49-1.51 11.72-4.04-4.13-.077-7.614-2.805-8.814-6.554.578.11 1.17.17 1.777.17.86 0 1.694-.116 2.486-.332-4.317-.867-7.57-4.68-7.57-9.252l.002-.12c1.272.708 2.727 1.132 4.274 1.18-2.533-1.69-4.2-4.58-4.2-7.853 0-1.73.466-3.35 1.278-4.745 4.654 5.71 11.607 9.465 19.45 9.86-.162-.692-.245-1.412-.245-2.15C22.408 4.225 26.633 0 31.844 0c2.713 0 5.165 1.145 6.887 2.98 2.15-.424 4.17-1.21 5.992-2.29-.706 2.202-2.2 4.052-4.15 5.22 1.91-.228 3.727-.735 5.42-1.486-1.265 1.892-2.865 3.554-4.708 4.885.02.404.028.81.028 1.22 0 12.47-9.49 26.847-26.847 26.847"/></svg>
